<svg width="296" height="83" viewBox="0 0 296 83" fill="none" xmlns="http://www.w3.org/2000/svg">
<path opacity="0.585271" d="M51.8324 0.0524766C50.68 -0.0291035 49.5043 -0.00763833 47.0012 0.0626262C41.9949 0.203126 41.2528 0.226147 36.456 1.00654C31.6589 1.78695 31.4507 2.10684 27.6156 3.28007C23.7804 4.45326 24.2647 4.34907 21.1401 5.9291C18.0155 7.50912 17.7992 7.7355 15.1721 9.58296C12.5451 11.4304 12.7056 11.3649 10.6353 13.318C8.56494 15.2711 8.8225 14.9234 7.04231 17.1241C5.26215 19.3249 4.97283 19.4347 3.52038 22.1177C2.06794 24.8007 1.15553 28.2684 1.15553 28.2684C1.15553 28.2684 0.353001 31.3625 0.120268 33.9622C-0.112458 36.5622 0.0318513 36.3504 0.221764 38.6716C0.411648 40.9932 0.258485 40.6106 0.871339 43.2492C1.48423 45.8878 1.63011 46.818 2.67797 49.2272C3.72584 51.6368 3.77744 51.7154 5.30671 54.0283C6.83597 56.3407 8.90983 58.5548 8.90983 58.5548C8.90983 58.5548 11.378 61.0342 14.0861 62.8787C16.7942 64.7229 20.1048 66.1266 20.1048 66.1266L1.85585 67.0399L4.01772 70.1559L18.4403 69.6993L24.2763 70.2371C24.2763 70.2371 27.8109 71.0211 30.8939 72.4193C33.9769 73.8172 36.608 75.8296 36.608 75.8296C36.608 75.8296 38.3433 77.2249 39.6633 78.4481C40.9832 79.6712 41.8858 80.7216 41.8858 80.7216L42.1398 80.9044L42.0888 80.7521L40.7795 78.032C40.7795 78.032 39.6925 76.2096 38.3742 74.7231C37.0559 73.2365 35.3293 71.6986 35.3293 71.6986L30.5589 68.4407L23.8602 64.7157L18.0343 61.7215C18.0343 61.7215 16.3267 60.8757 14.7357 59.7221C13.1447 58.5685 11.6705 57.1033 11.6705 57.1033C11.6705 57.1033 10.0955 55.6457 8.99103 54.3225C7.88659 52.9993 7.2453 51.8155 7.2453 51.8155C7.2453 51.8155 6.04021 50.1987 5.15448 48.121C4.26875 46.0434 3.70307 43.5029 3.70307 43.5029C3.70307 43.5029 5.63406 46.7686 8.1689 49.4202C10.7038 52.0717 10.8129 52.0438 13.8425 54.1095C16.8722 56.1748 20.2875 57.6821 20.2875 57.6821C20.2875 57.6821 22.9541 59.1599 25.3116 60.6559C27.6692 62.1518 30.1428 64.1168 30.1428 64.1168C30.1428 64.1168 31.9099 65.5868 33.5836 67.1922C35.2572 68.7973 36.8415 70.5414 36.8415 70.5414C36.8415 70.5414 38.5275 72.4687 39.6529 73.9621C40.7786 75.4551 41.358 76.347 41.358 76.347L42.4746 78.2655L43.8449 81.0464L44.2103 82.4166L44.3928 82.5485H44.4435C44.4139 81.5475 44.3347 79.2568 44.0174 77.0677C43.7605 75.295 43.2979 73.5415 42.9313 72.5207C42.1385 70.3131 41.4005 67.9421 40.5259 66.1974C39.2414 63.6355 37.8967 61.7059 36.2426 58.9913C35.1516 57.2001 32.0486 53.2393 27.4024 49.6537C24.9221 47.7394 22.0281 46.1499 19.638 44.6396C15.8924 42.2732 13.0618 40.3563 12.4723 39.6564C11.7589 38.8087 8.89165 36.4426 7.43812 34.3987C5.71743 31.9791 5.21651 28.869 5.14431 27.8929C4.9914 25.8249 5.71682 23.7806 5.91568 23.3052C6.53028 21.836 7.61897 19.6984 10.1075 16.8602C12.3038 14.3553 15.4733 11.7307 19.3335 9.46116C27.0448 4.92729 38.3693 2.65076 46.4328 2.65079C62.184 2.65079 76.4633 8.38722 82.8701 16.2411C84.0854 17.7309 85.2696 19.0185 86.3005 21.052C87.1206 22.6688 87.6435 23.5281 88.0056 25.8223C88.0907 26.361 88.306 28.6668 87.4171 30.9174C86.5327 33.1564 84.7736 35.7044 83.479 37.0276C81.1821 39.3751 78.1415 41.4473 75.9784 42.9751C72.7688 45.2427 68.6707 47.5591 65.6765 49.9278C61.3574 53.3446 59.1918 56.4034 58.1761 57.7633C55.228 61.7098 53.2481 65.6271 52.7256 66.6238C51.9422 68.1182 51.228 70.1315 50.6044 72.1046C50.0831 73.7536 49.5858 75.7237 49.3052 77.4942C48.9538 79.7121 48.9025 81.7433 48.8892 82.6297H49.011L49.1428 82.518L49.6199 80.742L50.9902 77.9609L52.0964 76.0427C52.0964 76.0427 52.6762 75.1508 53.8016 73.6574C54.927 72.1641 56.623 70.227 56.623 70.227C56.623 70.227 58.2076 68.493 59.8813 66.8876C61.5549 65.2825 63.3117 63.8125 63.3117 63.8125C63.3117 63.8125 65.7957 61.8371 68.153 60.3411C70.5106 58.8452 73.167 57.3775 73.167 57.3775C73.167 57.3775 76.5825 55.8701 79.6121 53.8048C82.6417 51.7395 82.7509 51.7674 85.2855 49.1158C87.8205 46.464 89.7513 43.1985 89.7513 43.1985C89.7513 43.1985 89.196 45.739 88.3103 47.8167C87.4246 49.894 86.2092 51.5111 86.2092 51.5111C86.2092 51.5111 85.5782 52.6846 84.4735 54.0078C83.3693 55.331 81.794 56.799 81.794 56.799C81.794 56.799 80.3202 58.2638 78.729 59.4174C77.1379 60.5711 75.4305 61.4172 75.4305 61.4172L69.6044 64.4111L62.8956 68.136L58.1355 71.394C58.1355 71.394 56.3986 72.9322 55.0803 74.4187C53.7623 75.9053 52.6749 77.7273 52.6749 77.7273L51.3757 80.4474L51.2744 80.7521L51.5687 80.5085C51.5687 80.5085 53.5888 78.2662 55.5372 76.6416C57.4856 75.0167 59.3636 74.0027 59.3636 74.0027C59.3636 74.0027 61.9096 72.2638 64.7632 71.191C67.6167 70.1182 71.1371 69.8311 71.1371 69.8311L78.8914 69.7499L89.1018 70.227L91.7001 66.9587L72.8829 66.2484C72.8829 66.2484 76.3431 64.6322 78.6173 63.1018C80.8915 61.5714 82.2205 60.2905 82.2205 60.2905C82.2205 60.2905 84.6226 58.2729 86.2703 56.2206C87.9179 54.1679 89.3048 51.2676 89.3048 51.2676C89.3048 51.2676 90.5906 49.1126 91.5581 46.1012C92.5257 43.0901 92.6848 40.0319 92.6848 40.0319C92.6848 40.0319 93.2152 36.5547 92.8674 33.0285C92.5195 29.5024 91.487 25.8528 91.487 25.8528C91.487 25.8528 90.36 22.6442 88.3002 19.3976C86.2401 16.1511 86.4284 16.0319 83.0526 12.9425C79.6771 9.85302 76.6543 8.00417 74.8517 6.95423C73.7442 6.30897 70.6847 4.71033 66.113 3.11767C61.5413 1.52497 61.3058 1.38073 56.5116 0.671603C54.1144 0.317045 52.9851 0.13406 51.8324 0.0524766ZM90.0459 31.1204L90.1167 34.7541C90.1167 34.7541 89.9875 36.5859 89.5282 38.1845C89.069 39.7834 88.2797 41.1481 88.2797 41.1481C88.2797 41.1481 86.0114 44.4918 83.4079 47.0655C80.8047 49.6391 77.7241 51.3689 77.7241 51.3689L71.5837 54.9214C71.5837 54.9214 66.6122 57.2609 62.1954 60.8283C58.4084 63.8869 55.2115 68.0626 53.8828 69.963L54.6743 67.6693C54.6743 67.6693 55.7532 64.8921 58.6633 61.2142C61.5734 57.536 62.5052 56.1186 66.3972 52.7086C70.2891 49.2987 74.2733 47.3191 74.2733 47.3191C74.2733 47.3191 78.6533 44.854 81.4186 42.6808C84.1838 40.5077 86.0468 38.3978 86.0468 38.3978C86.0468 38.3978 88.0602 35.5582 89.0612 33.7391C90.0625 31.92 90.0459 31.1204 90.0459 31.1204ZM3.44934 31.4046C3.44934 31.4046 3.43281 32.2042 4.43384 34.0233C5.4349 35.8424 7.45842 38.682 7.45842 38.682C7.45842 38.682 9.32144 40.8019 12.0866 42.9751C14.8519 45.1486 19.232 47.6033 19.232 47.6033C19.232 47.6033 23.2568 49.7047 27.1487 53.1146C31.0405 56.5246 31.9219 57.8201 34.832 61.4984C37.7421 65.1763 38.8308 67.9535 38.8308 67.9535L39.6227 70.2472C38.2936 68.3468 35.0971 64.171 31.31 61.1125C26.8931 57.5451 21.9216 55.2056 21.9216 55.2056L15.771 51.6531C15.771 51.6531 12.6905 49.9233 10.0872 47.3496C7.48385 44.776 5.22551 41.4323 5.22551 41.4323C5.22551 41.4323 4.43628 40.0676 3.97712 38.4687C3.51797 36.87 3.38845 35.0382 3.38845 35.0382L3.44934 31.4046ZM47.0723 21.0825C42.6071 21.0825 38.1988 23.1109 35.8772 27.1926C34.4884 29.6349 33.7661 32.6728 33.7661 35.8401C33.7661 40.1686 37.4368 48.73 40.6477 55.5099C41.8699 58.0907 43.0842 61.791 44.0986 65.3146C44.4626 66.5787 44.7813 68.9422 45.0525 71.7493H45.3366C45.033 68.0545 44.6822 64.7388 44.2304 63.2035C43.2583 59.8998 42.1031 56.4275 40.9319 54.0078C37.8552 47.651 34.3244 39.6246 34.3244 35.566C34.3244 32.5965 35.1552 29.5738 36.4862 27.2839C38.7107 23.457 42.7127 21.6407 46.9911 21.6407C50.2448 21.6407 53.6226 23.3208 55.862 25.5178C58.3294 27.9388 59.5867 31.1641 59.5867 35.3224C59.5867 39.3141 56.244 47.4052 53.0403 53.6931C51.7892 56.1488 50.5394 59.6474 49.4881 62.98C48.9873 64.5673 48.5176 67.972 48.0772 71.7493H48.402C48.7774 68.8386 49.1825 66.3897 49.5894 65.071C50.6869 61.5162 51.9883 57.7938 53.2939 55.1751C56.6376 48.4685 60.1249 39.8337 60.1249 35.5761C60.1249 31.1411 58.6299 27.4098 56.0546 24.8277C53.7178 22.4843 50.468 21.0825 47.0723 21.0825ZM44.5958 27.9842C41.9046 29.6448 39.9676 33.9694 39.9676 39.088C39.9676 40.8847 40.2037 42.586 40.6272 44.1118C41.2079 46.2035 42.7198 50.6664 44.1593 54.5966C44.995 56.8776 45.792 61.6975 46.2704 64.9999C46.4442 66.1971 46.5484 70.7246 46.6157 74.7029H46.8186C46.9154 70.7032 47.0535 66.137 47.2448 64.9086C47.7514 61.6575 48.5699 56.9981 49.4371 54.7792C50.9447 50.9226 52.6528 46.4526 53.2533 44.4672C53.7421 42.8513 54.0146 41.0267 54.0146 39.088C54.0146 33.9694 52.0877 29.6447 49.3965 27.9842C51.517 29.6085 52.9997 33.312 52.9997 37.6265C52.9997 39.3472 52.7681 40.9728 52.3501 42.4067C51.8366 44.169 50.3708 48.1288 49.0821 51.5517C48.3403 53.5209 46.7881 58.8695 46.7881 58.8695C46.7881 58.8695 45.2899 53.4134 44.5757 51.3894C43.3447 47.9015 42.0475 43.9384 41.5509 42.0819C41.1888 40.7275 40.9926 39.2209 40.9926 37.6265C40.9926 33.312 42.4756 29.6085 44.5958 27.9842ZM42.6877 37.0477L43.0024 39.027L44.1593 41.9095L45.1742 44.5178L46.1285 47.4919L46.8998 50.831L48.1379 46.5682L48.808 44.6396L50.3812 40.9962L51.112 39.2706L51.4975 37.2101C51.4975 37.2101 50.858 38.608 50.1172 40.4986C49.3517 42.4522 49.5397 41.9127 48.5845 44.3148C47.6215 46.7381 46.9304 49.6638 46.9304 49.6638C46.9304 49.6638 46.4175 47.0258 45.6108 44.6701C44.804 42.3148 44.6673 42.1641 43.9462 40.255C43.2271 38.3514 42.7202 37.0552 42.7182 37.0477H42.6877Z" fill="white"/>
<path d="M142.982 40.5749H143.27V40.8149H138.038V40.5749H138.35C138.75 40.5749 139.094 40.4389 139.382 40.1669C139.686 39.8789 139.854 39.5269 139.886 39.1109V32.8709H130.598V39.1349C130.598 41.3749 130.054 42.8789 128.966 43.6469C128.47 43.9989 127.83 44.2629 127.046 44.4389L126.926 44.2229C127.646 43.8389 128.174 43.2469 128.51 42.4469C128.862 41.6469 129.038 40.5429 129.038 39.1349V25.7429C129.038 25.3269 128.886 24.9749 128.582 24.6869C128.278 24.3989 127.918 24.2549 127.502 24.2549H127.214V24.0149H132.446V24.2549H132.134C131.718 24.2549 131.358 24.3989 131.054 24.6869C130.766 24.9749 130.614 25.3269 130.598 25.7429V32.1509H139.886V26.1749C139.902 24.1269 140.358 22.7029 141.254 21.9029C141.798 21.4229 142.534 21.0789 143.462 20.8709L143.582 21.0869C142.862 21.4709 142.326 22.0629 141.974 22.8629C141.622 23.6629 141.446 24.7669 141.446 26.1749V39.0629C141.446 39.4789 141.59 39.8389 141.878 40.1429C142.182 40.4309 142.55 40.5749 142.982 40.5749ZM148.068 26.1029C149.78 24.4869 151.996 23.6789 154.716 23.6789C157.452 23.6789 159.676 24.4869 161.388 26.1029C163.1 27.7029 163.956 29.8069 163.956 32.4149C163.956 35.0229 163.1 37.1349 161.388 38.7509C159.676 40.3509 157.452 41.1509 154.716 41.1509C151.996 41.1509 149.78 40.3509 148.068 38.7509C146.356 37.1349 145.5 35.0229 145.5 32.4149C145.5 29.8069 146.356 27.7029 148.068 26.1029ZM149.364 38.2229C150.724 39.6949 152.508 40.4309 154.716 40.4309C156.924 40.4309 158.7 39.6949 160.044 38.2229C161.404 36.7509 162.084 34.8149 162.084 32.4149C162.084 30.0149 161.404 28.0789 160.044 26.6069C158.7 25.1349 156.924 24.3989 154.716 24.3989C152.508 24.3989 150.724 25.1349 149.364 26.6069C148.02 28.0789 147.348 30.0149 147.348 32.4149C147.348 34.8149 148.02 36.7509 149.364 38.2229ZM178.411 26.1509C178.411 25.7669 178.275 25.4389 178.003 25.1669C177.731 24.8789 177.411 24.7269 177.043 24.7109H172.483V39.0869C172.499 39.5029 172.651 39.8549 172.939 40.1429C173.243 40.4309 173.603 40.5749 174.019 40.5749H174.331V40.8149H169.075V40.5749H169.387C169.803 40.5749 170.155 40.4309 170.443 40.1429C170.747 39.8549 170.907 39.5109 170.923 39.1109V24.7109H166.363C165.979 24.7269 165.651 24.8789 165.379 25.1669C165.123 25.4389 164.995 25.7669 164.995 26.1509V26.5589L164.755 26.5829V23.5589C164.995 23.6549 165.411 23.7509 166.003 23.8469C166.595 23.9429 167.139 23.9909 167.635 23.9909H175.747C176.531 23.9909 177.179 23.9349 177.691 23.8229C178.219 23.6949 178.539 23.6069 178.651 23.5589V26.5829L178.411 26.5589V26.1509ZM180.863 40.5749C181.279 40.5749 181.631 40.4309 181.919 40.1429C182.223 39.8389 182.383 39.4789 182.399 39.0629V25.6229C182.399 25.2389 182.247 24.9189 181.943 24.6629C181.639 24.3909 181.279 24.2549 180.863 24.2549H180.575L180.551 24.0149H187.583C188.079 24.0149 188.615 23.9669 189.191 23.8709C189.783 23.7749 190.199 23.6789 190.439 23.5829V26.6069H190.199V26.1749C190.199 25.7909 190.063 25.4629 189.791 25.1909C189.535 24.9189 189.223 24.7749 188.855 24.7589H183.959V32.1749H188.015C188.335 32.1589 188.607 32.0389 188.831 31.8149C189.055 31.5909 189.167 31.3109 189.167 30.9749V30.6389H189.407V34.4309H189.167V34.0709C189.167 33.7509 189.055 33.4789 188.831 33.2549C188.623 33.0309 188.359 32.9109 188.039 32.8949H183.959V40.0709H187.391C188.575 40.0709 189.479 39.8069 190.103 39.2789C190.727 38.7509 191.247 37.9669 191.663 36.9269H191.903L190.511 40.8149H180.551V40.5749H180.863ZM194.48 40.5749C194.896 40.5749 195.248 40.4309 195.536 40.1429C195.84 39.8389 196 39.4789 196.016 39.0629V25.7669C196 25.3509 195.84 24.9989 195.536 24.7109C195.248 24.4069 194.896 24.2549 194.48 24.2549H194.168V24.0149H199.424V24.2549H199.112C198.536 24.2549 198.096 24.5029 197.792 24.9989C197.648 25.2389 197.576 25.4949 197.576 25.7669V40.0709H201.008C202.192 40.0709 203.096 39.8069 203.72 39.2789C204.344 38.7509 204.864 37.9669 205.28 36.9269H205.52L204.128 40.8149H194.168V40.5749H194.48ZM229.7 40.5749H229.988V40.8149H224.756V40.5749H225.068C225.468 40.5749 225.812 40.4389 226.1 40.1669C226.404 39.8789 226.572 39.5269 226.604 39.1109V32.8709H217.316V39.1349C217.316 41.3749 216.772 42.8789 215.684 43.6469C215.188 43.9989 214.548 44.2629 213.764 44.4389L213.644 44.2229C214.364 43.8389 214.892 43.2469 215.228 42.4469C215.58 41.6469 215.756 40.5429 215.756 39.1349V25.7429C215.756 25.3269 215.604 24.9749 215.3 24.6869C214.996 24.3989 214.636 24.2549 214.22 24.2549H213.932V24.0149H219.164V24.2549H218.852C218.436 24.2549 218.076 24.3989 217.772 24.6869C217.484 24.9749 217.332 25.3269 217.316 25.7429V32.1509H226.604V26.1749C226.62 24.1269 227.076 22.7029 227.972 21.9029C228.516 21.4229 229.252 21.0789 230.18 20.8709L230.3 21.0869C229.58 21.4709 229.044 22.0629 228.692 22.8629C228.34 23.6629 228.164 24.7669 228.164 26.1749V39.0629C228.164 39.4789 228.308 39.8389 228.596 40.1429C228.9 40.4309 229.268 40.5749 229.7 40.5749ZM234.787 26.1029C236.499 24.4869 238.715 23.6789 241.435 23.6789C244.171 23.6789 246.395 24.4869 248.107 26.1029C249.819 27.7029 250.675 29.8069 250.675 32.4149C250.675 35.0229 249.819 37.1349 248.107 38.7509C246.395 40.3509 244.171 41.1509 241.435 41.1509C238.715 41.1509 236.499 40.3509 234.787 38.7509C233.075 37.1349 232.219 35.0229 232.219 32.4149C232.219 29.8069 233.075 27.7029 234.787 26.1029ZM236.083 38.2229C237.443 39.6949 239.227 40.4309 241.435 40.4309C243.643 40.4309 245.419 39.6949 246.763 38.2229C248.123 36.7509 248.803 34.8149 248.803 32.4149C248.803 30.0149 248.123 28.0789 246.763 26.6069C245.419 25.1349 243.643 24.3989 241.435 24.3989C239.227 24.3989 237.443 25.1349 236.083 26.6069C234.739 28.0789 234.067 30.0149 234.067 32.4149C234.067 34.8149 234.739 36.7509 236.083 38.2229ZM268.891 24.2549H268.507C268.171 24.2549 267.875 24.3669 267.619 24.5909C267.379 24.7989 267.251 25.0629 267.235 25.3829V34.8869C267.235 36.7589 266.643 38.2709 265.459 39.4229C264.275 40.5749 262.699 41.1509 260.731 41.1509C258.763 41.1509 257.163 40.5829 255.931 39.4469C254.715 38.2949 254.107 36.7829 254.107 34.9109V25.4549C254.107 24.9749 253.899 24.6229 253.483 24.3989C253.291 24.3029 253.075 24.2549 252.835 24.2549H252.451V24.0149H257.323V24.2549H256.939C256.587 24.2549 256.291 24.3669 256.051 24.5909C255.811 24.7989 255.683 25.0709 255.667 25.4069V34.5749C255.667 36.3189 256.131 37.7269 257.059 38.7989C258.003 39.8709 259.259 40.4069 260.827 40.4069C262.395 40.4069 263.667 39.9029 264.643 38.8949C265.619 37.8709 266.107 36.5349 266.107 34.8869V25.4069C266.091 25.0709 265.963 24.7989 265.723 24.5909C265.483 24.3669 265.187 24.2549 264.835 24.2549H264.451V24.0149H268.891V24.2549ZM271.559 39.8309C271.511 39.6069 271.487 39.1749 271.487 38.5349C271.487 37.8949 271.607 37.2149 271.847 36.4949H272.063C272.047 36.6709 272.039 36.8469 272.039 37.0229C272.039 37.9989 272.335 38.8149 272.927 39.4709C273.519 40.1109 274.303 40.4309 275.279 40.4309C276.287 40.4309 277.111 40.1269 277.751 39.5189C278.407 38.9109 278.735 38.1509 278.735 37.2389C278.735 36.3109 278.423 35.5589 277.799 34.9829L273.191 30.7109C272.327 29.9109 271.895 28.9429 271.895 27.8069C271.895 26.6709 272.271 25.7029 273.023 24.9029C273.791 24.0869 274.823 23.6789 276.119 23.6789C276.727 23.6789 277.415 23.7589 278.183 23.9189H279.119V26.8709H278.903C278.903 26.1189 278.639 25.5189 278.111 25.0709C277.599 24.6229 276.935 24.3989 276.119 24.3989C275.303 24.3989 274.615 24.6709 274.055 25.2149C273.511 25.7589 273.239 26.4389 273.239 27.2549C273.239 28.0709 273.559 28.7749 274.199 29.3669L278.927 33.7349C279.727 34.4709 280.127 35.4789 280.127 36.7589C280.127 38.0389 279.719 39.0949 278.903 39.9269C278.087 40.7429 276.999 41.1509 275.639 41.1509C274.935 41.1509 274.183 41.0389 273.383 40.8149C272.599 40.6069 271.991 40.2789 271.559 39.8309ZM283.261 40.5749C283.677 40.5749 284.029 40.4309 284.317 40.1429C284.621 39.8389 284.781 39.4789 284.797 39.0629V25.6229C284.797 25.2389 284.645 24.9189 284.341 24.6629C284.037 24.3909 283.677 24.2549 283.261 24.2549H282.973L282.949 24.0149H289.981C290.477 24.0149 291.013 23.9669 291.589 23.8709C292.181 23.7749 292.597 23.6789 292.837 23.5829V26.6069H292.597V26.1749C292.597 25.7909 292.461 25.4629 292.189 25.1909C291.933 24.9189 291.621 24.7749 291.253 24.7589H286.357V32.1749H290.413C290.733 32.1589 291.005 32.0389 291.229 31.8149C291.453 31.5909 291.565 31.3109 291.565 30.9749V30.6389H291.805V34.4309H291.565V34.0709C291.565 33.7509 291.453 33.4789 291.229 33.2549C291.021 33.0309 290.757 32.9109 290.437 32.8949H286.357V40.0709H289.789C290.973 40.0709 291.877 39.8069 292.501 39.2789C293.125 38.7509 293.645 37.9669 294.061 36.9269H294.301L292.909 40.8149H282.949V40.5749H283.261Z" fill="white"/>
<line x1="125.486" y1="56.8149" x2="157.486" y2="56.8149" stroke="white" stroke-linecap="round"/>
<path d="M167.933 54.2149H169.352C169.696 54.2149 170.004 54.2553 170.276 54.3359C170.554 54.4166 170.789 54.5339 170.98 54.6879C171.178 54.8419 171.328 55.0289 171.431 55.2489C171.533 55.4689 171.585 55.7183 171.585 55.9969C171.585 56.3049 171.511 56.5909 171.365 56.8549C171.218 57.1189 171.013 57.3353 170.749 57.5039C170.492 57.6726 170.199 57.7753 169.869 57.8119C169.993 57.8633 170.136 57.9769 170.298 58.1529C170.466 58.3289 170.609 58.5013 170.727 58.6699C170.727 58.6699 170.774 58.7359 170.87 58.8679C170.965 58.9926 171.086 59.1503 171.233 59.3409C171.387 59.5243 171.537 59.7003 171.684 59.8689C171.838 60.0376 171.977 60.1843 172.102 60.3089C172.234 60.4336 172.373 60.5326 172.52 60.6059C172.674 60.6719 172.85 60.7049 173.048 60.7049V60.8149H172.707C172.303 60.8149 171.97 60.7636 171.706 60.6609C171.449 60.5583 171.24 60.4336 171.079 60.2869C170.917 60.1329 170.778 59.9863 170.661 59.8469C170.631 59.8103 170.562 59.7186 170.452 59.5719C170.349 59.4179 170.235 59.2529 170.111 59.0769C169.986 58.9009 169.872 58.7433 169.77 58.6039C169.667 58.4573 169.605 58.3693 169.583 58.3399C169.436 58.1493 169.267 57.9806 169.077 57.8339C168.886 57.6799 168.684 57.6029 168.472 57.6029V57.4929C168.472 57.4929 168.53 57.4966 168.648 57.5039C168.765 57.5039 168.915 57.5003 169.099 57.4929C169.304 57.4856 169.509 57.4709 169.715 57.4489C169.92 57.4196 170.111 57.3389 170.287 57.2069C170.47 57.0749 170.613 56.8549 170.716 56.5469C170.745 56.4663 170.767 56.3709 170.782 56.2609C170.796 56.1509 170.8 56.0373 170.793 55.9199C170.785 55.7146 170.745 55.5313 170.672 55.3699C170.606 55.2086 170.507 55.0693 170.375 54.9519C170.25 54.8346 170.1 54.7429 169.924 54.6769C169.748 54.6109 169.55 54.5743 169.33 54.5669C168.985 54.5523 168.684 54.5486 168.428 54.5559C168.171 54.5633 168.043 54.5633 168.043 54.5559C168.043 54.5486 168.032 54.5193 168.01 54.4679C167.995 54.4093 167.977 54.3543 167.955 54.3029C167.94 54.2443 167.933 54.2149 167.933 54.2149ZM168.065 54.2149V60.8149H167.361V54.2149H168.065ZM167.394 60.1109L167.526 60.8149H166.591V60.7049C166.591 60.7049 166.616 60.7049 166.668 60.7049C166.719 60.7049 166.745 60.7049 166.745 60.7049C166.921 60.7049 167.067 60.6463 167.185 60.5289C167.302 60.4116 167.364 60.2723 167.372 60.1109H167.394ZM167.394 54.9079H167.372C167.364 54.7393 167.302 54.5999 167.185 54.4899C167.067 54.3799 166.921 54.3249 166.745 54.3249C166.745 54.3249 166.719 54.3249 166.668 54.3249C166.616 54.3249 166.591 54.3249 166.591 54.3249V54.2149H167.526L167.394 54.9079ZM168.032 60.1109H168.065C168.072 60.2723 168.134 60.4116 168.252 60.5289C168.369 60.6463 168.516 60.7049 168.692 60.7049C168.692 60.7049 168.714 60.7049 168.758 60.7049C168.809 60.7049 168.835 60.7049 168.835 60.7049L168.846 60.8149H167.9L168.032 60.1109ZM174.983 54.2149V60.8149H174.279V54.2149H174.983ZM177.942 60.4739L177.92 60.8149H174.961V60.4739H177.942ZM177.425 57.3499V57.6799H174.961V57.3499H177.425ZM177.931 54.2149V54.5559H174.961V54.2149H177.931ZM178.558 59.2419L177.953 60.8149H176.281L176.655 60.4739C177.022 60.4739 177.315 60.4226 177.535 60.3199C177.762 60.2099 177.946 60.0633 178.085 59.8799C178.224 59.6893 178.345 59.4766 178.448 59.2419H178.558ZM177.425 57.6579V58.2849H177.304V58.1419C177.304 58.0173 177.267 57.9109 177.194 57.8229C177.121 57.7276 177.007 57.6799 176.853 57.6799V57.6579H177.425ZM177.425 56.7449V57.3719H176.853V57.3499C177.007 57.3499 177.121 57.3059 177.194 57.2179C177.267 57.1226 177.304 57.0126 177.304 56.8879V56.7449H177.425ZM177.931 54.5229V55.2819H177.81V55.1169C177.81 54.9629 177.759 54.8309 177.656 54.7209C177.561 54.6109 177.429 54.5559 177.26 54.5559V54.5229H177.931ZM177.931 54.0389V54.3249L176.677 54.2149C176.904 54.2149 177.146 54.1966 177.403 54.1599C177.66 54.1159 177.836 54.0756 177.931 54.0389ZM174.301 60.1109L174.444 60.8149H173.487V60.7049C173.487 60.7049 173.513 60.7049 173.564 60.7049C173.615 60.7049 173.641 60.7049 173.641 60.7049C173.824 60.7049 173.975 60.6463 174.092 60.5289C174.209 60.4116 174.272 60.2723 174.279 60.1109H174.301ZM174.301 54.9079H174.279C174.272 54.7393 174.209 54.5999 174.092 54.4899C173.975 54.3799 173.824 54.3249 173.641 54.3249C173.641 54.3249 173.615 54.3249 173.564 54.3249C173.513 54.3249 173.487 54.3249 173.487 54.3249V54.2149H174.444L174.301 54.9079ZM181.461 54.0609C181.666 54.0609 181.846 54.0683 182 54.0829C182.154 54.0976 182.286 54.1159 182.396 54.1379C182.513 54.1526 182.612 54.1746 182.693 54.2039C182.781 54.2259 182.858 54.2479 182.924 54.2699L182.935 55.3589H182.803C182.803 55.0583 182.7 54.8236 182.495 54.6549C182.29 54.4789 181.971 54.3909 181.538 54.3909C181.171 54.3909 180.856 54.4936 180.592 54.6989C180.335 54.8969 180.211 55.1426 180.218 55.4359C180.218 55.5313 180.229 55.6303 180.251 55.7329C180.28 55.8283 180.324 55.9236 180.383 56.0189C180.449 56.1143 180.537 56.2096 180.647 56.3049L182.869 58.0209C183.038 58.1603 183.162 58.3399 183.243 58.5599C183.324 58.7726 183.368 58.9853 183.375 59.1979C183.382 59.5206 183.298 59.8176 183.122 60.0889C182.946 60.3603 182.708 60.5766 182.407 60.7379C182.114 60.8919 181.787 60.9689 181.428 60.9689C181.215 60.9689 180.984 60.9506 180.735 60.9139C180.493 60.8773 180.266 60.8223 180.053 60.7489C179.84 60.6683 179.664 60.5693 179.525 60.4519C179.503 60.3493 179.492 60.2209 179.492 60.0669C179.492 59.9056 179.503 59.7369 179.525 59.5609C179.554 59.3849 179.591 59.2273 179.635 59.0879H179.767C179.738 59.4179 179.785 59.7003 179.91 59.9349C180.035 60.1696 180.218 60.3493 180.46 60.4739C180.702 60.5913 180.984 60.6463 181.307 60.6389C181.762 60.6243 182.117 60.5106 182.374 60.2979C182.638 60.0779 182.77 59.7883 182.77 59.4289C182.77 59.2529 182.737 59.0953 182.671 58.9559C182.612 58.8093 182.513 58.6736 182.374 58.5489L180.174 56.8549C179.969 56.6789 179.829 56.4846 179.756 56.2719C179.683 56.0593 179.646 55.8576 179.646 55.6669C179.646 55.3663 179.727 55.0949 179.888 54.8529C180.049 54.6109 180.266 54.4203 180.537 54.2809C180.816 54.1343 181.124 54.0609 181.461 54.0609ZM182.913 54.1599L182.924 54.3579H182.143V54.1599H182.913ZM187.51 54.2479V60.8149H186.795V54.2479H187.51ZM190.172 54.2039V54.5339H184.133V54.2039H190.172ZM190.172 54.5119V55.2709H190.051V55.0949C190.051 54.9409 190 54.8126 189.897 54.7099C189.802 54.5999 189.67 54.5413 189.501 54.5339V54.5119H190.172ZM190.172 54.0279V54.3139L188.94 54.2039C189.087 54.2039 189.241 54.1966 189.402 54.1819C189.571 54.1599 189.725 54.1343 189.864 54.1049C190.003 54.0756 190.106 54.0499 190.172 54.0279ZM186.817 60.1109V60.8149H186.014V60.7049C186.021 60.7049 186.043 60.7049 186.08 60.7049C186.124 60.7049 186.146 60.7049 186.146 60.7049C186.322 60.7049 186.472 60.6463 186.597 60.5289C186.722 60.4116 186.788 60.2723 186.795 60.1109H186.817ZM187.477 60.1109H187.51C187.517 60.2723 187.583 60.4116 187.708 60.5289C187.833 60.6463 187.983 60.7049 188.159 60.7049C188.159 60.7049 188.177 60.7049 188.214 60.7049C188.258 60.7049 188.28 60.7049 188.28 60.7049V60.8149H187.477V60.1109ZM184.804 54.5119V54.5339C184.635 54.5413 184.5 54.5999 184.397 54.7099C184.302 54.8126 184.254 54.9409 184.254 55.0949V55.2709H184.133V54.5119H184.804ZM184.133 54.0279C184.199 54.0499 184.298 54.0756 184.43 54.1049C184.569 54.1343 184.723 54.1599 184.892 54.1819C185.061 54.1966 185.218 54.2039 185.365 54.2039L184.133 54.3139V54.0279ZM193.25 54.0609L196.275 60.7489H195.406L193.063 55.0399L193.25 54.0609ZM191.127 60.0119C191.046 60.2319 191.057 60.4043 191.16 60.5289C191.263 60.6463 191.38 60.7049 191.512 60.7049H191.6V60.8149H189.499V60.7049C189.499 60.7049 189.514 60.7049 189.543 60.7049C189.572 60.7049 189.587 60.7049 189.587 60.7049C189.741 60.7049 189.899 60.6536 190.06 60.5509C190.221 60.4409 190.361 60.2613 190.478 60.0119H191.127ZM193.25 54.0609L193.327 54.8199L190.808 60.7819H190.115L192.722 55.1939C192.722 55.1939 192.74 55.1499 192.777 55.0619C192.821 54.9739 192.869 54.8676 192.92 54.7429C192.979 54.6109 193.03 54.4826 193.074 54.3579C193.118 54.2333 193.144 54.1343 193.151 54.0609H193.25ZM194.548 58.2519V58.5819H191.633V58.2519H194.548ZM195.109 60.0119H195.945C196.055 60.2613 196.191 60.4409 196.352 60.5509C196.513 60.6536 196.667 60.7049 196.814 60.7049C196.814 60.7049 196.829 60.7049 196.858 60.7049C196.887 60.7049 196.902 60.7049 196.902 60.7049V60.8149H194.647V60.7049H194.735C194.86 60.7049 194.973 60.6463 195.076 60.5289C195.179 60.4043 195.19 60.2319 195.109 60.0119ZM198.244 54.2149V58.3729C198.244 59.0843 198.424 59.6453 198.783 60.0559C199.15 60.4666 199.649 60.6719 200.279 60.6719C200.976 60.6719 201.522 60.4776 201.918 60.0889C202.322 59.7003 202.523 59.1686 202.523 58.4939V54.2149H203.029V58.4939C203.029 59.2566 202.784 59.8616 202.292 60.3089C201.808 60.7489 201.141 60.9689 200.29 60.9689C199.447 60.9689 198.776 60.7489 198.277 60.3089C197.786 59.8689 197.54 59.2676 197.54 58.5049V54.2149H198.244ZM197.562 54.2149V54.7979H197.54C197.533 54.6659 197.478 54.5559 197.375 54.4679C197.28 54.3726 197.159 54.3249 197.012 54.3249C197.012 54.3249 196.983 54.3249 196.924 54.3249C196.873 54.3249 196.847 54.3249 196.847 54.3249V54.2149H197.562ZM198.937 54.2149V54.3249C198.937 54.3249 198.908 54.3249 198.849 54.3249C198.798 54.3249 198.772 54.3249 198.772 54.3249C198.633 54.3249 198.508 54.3726 198.398 54.4679C198.296 54.5559 198.244 54.6659 198.244 54.7979H198.222V54.2149H198.937ZM202.545 54.2149V54.7979H202.523C202.523 54.6659 202.472 54.5559 202.369 54.4679C202.267 54.3726 202.142 54.3249 201.995 54.3249C201.995 54.3249 201.966 54.3249 201.907 54.3249C201.856 54.3249 201.83 54.3249 201.83 54.3249V54.2149H202.545ZM203.722 54.2149V54.3249C203.722 54.3249 203.693 54.3249 203.634 54.3249C203.583 54.3249 203.557 54.3249 203.557 54.3249C203.418 54.3249 203.297 54.3726 203.194 54.4679C203.092 54.5559 203.037 54.6659 203.029 54.7979H203.007V54.2149H203.722ZM206.057 54.2149H207.476C207.82 54.2149 208.128 54.2553 208.4 54.3359C208.678 54.4166 208.913 54.5339 209.104 54.6879C209.302 54.8419 209.452 55.0289 209.555 55.2489C209.657 55.4689 209.709 55.7183 209.709 55.9969C209.709 56.3049 209.635 56.5909 209.489 56.8549C209.342 57.1189 209.137 57.3353 208.873 57.5039C208.616 57.6726 208.323 57.7753 207.993 57.8119C208.117 57.8633 208.26 57.9769 208.422 58.1529C208.59 58.3289 208.733 58.5013 208.851 58.6699C208.851 58.6699 208.898 58.7359 208.994 58.8679C209.089 58.9926 209.21 59.1503 209.357 59.3409C209.511 59.5243 209.661 59.7003 209.808 59.8689C209.962 60.0376 210.101 60.1843 210.226 60.3089C210.358 60.4336 210.497 60.5326 210.644 60.6059C210.798 60.6719 210.974 60.7049 211.172 60.7049V60.8149H210.831C210.427 60.8149 210.094 60.7636 209.83 60.6609C209.573 60.5583 209.364 60.4336 209.203 60.2869C209.041 60.1329 208.902 59.9863 208.785 59.8469C208.755 59.8103 208.686 59.7186 208.576 59.5719C208.473 59.4179 208.359 59.2529 208.235 59.0769C208.11 58.9009 207.996 58.7433 207.894 58.6039C207.791 58.4573 207.729 58.3693 207.707 58.3399C207.56 58.1493 207.391 57.9806 207.201 57.8339C207.01 57.6799 206.808 57.6029 206.596 57.6029V57.4929C206.596 57.4929 206.654 57.4966 206.772 57.5039C206.889 57.5039 207.039 57.5003 207.223 57.4929C207.428 57.4856 207.633 57.4709 207.839 57.4489C208.044 57.4196 208.235 57.3389 208.411 57.2069C208.594 57.0749 208.737 56.8549 208.84 56.5469C208.869 56.4663 208.891 56.3709 208.906 56.2609C208.92 56.1509 208.924 56.0373 208.917 55.9199C208.909 55.7146 208.869 55.5313 208.796 55.3699C208.73 55.2086 208.631 55.0693 208.499 54.9519C208.374 54.8346 208.224 54.7429 208.048 54.6769C207.872 54.6109 207.674 54.5743 207.454 54.5669C207.109 54.5523 206.808 54.5486 206.552 54.5559C206.295 54.5633 206.167 54.5633 206.167 54.5559C206.167 54.5486 206.156 54.5193 206.134 54.4679C206.119 54.4093 206.101 54.3543 206.079 54.3029C206.064 54.2443 206.057 54.2149 206.057 54.2149ZM206.189 54.2149V60.8149H205.485V54.2149H206.189ZM205.518 60.1109L205.65 60.8149H204.715V60.7049C204.715 60.7049 204.74 60.7049 204.792 60.7049C204.843 60.7049 204.869 60.7049 204.869 60.7049C205.045 60.7049 205.191 60.6463 205.309 60.5289C205.426 60.4116 205.488 60.2723 205.496 60.1109H205.518ZM205.518 54.9079H205.496C205.488 54.7393 205.426 54.5999 205.309 54.4899C205.191 54.3799 205.045 54.3249 204.869 54.3249C204.869 54.3249 204.843 54.3249 204.792 54.3249C204.74 54.3249 204.715 54.3249 204.715 54.3249V54.2149H205.65L205.518 54.9079ZM206.156 60.1109H206.189C206.196 60.2723 206.258 60.4116 206.376 60.5289C206.493 60.6463 206.64 60.7049 206.816 60.7049C206.816 60.7049 206.838 60.7049 206.882 60.7049C206.933 60.7049 206.959 60.7049 206.959 60.7049L206.97 60.8149H206.024L206.156 60.1109ZM214.702 54.0609L217.727 60.7489H216.858L214.515 55.0399L214.702 54.0609ZM212.579 60.0119C212.498 60.2319 212.509 60.4043 212.612 60.5289C212.715 60.6463 212.832 60.7049 212.964 60.7049H213.052V60.8149H210.951V60.7049C210.951 60.7049 210.966 60.7049 210.995 60.7049C211.024 60.7049 211.039 60.7049 211.039 60.7049C211.193 60.7049 211.351 60.6536 211.512 60.5509C211.673 60.4409 211.813 60.2613 211.93 60.0119H212.579ZM214.702 54.0609L214.779 54.8199L212.26 60.7819H211.567L214.174 55.1939C214.174 55.1939 214.192 55.1499 214.229 55.0619C214.273 54.9739 214.321 54.8676 214.372 54.7429C214.431 54.6109 214.482 54.4826 214.526 54.3579C214.57 54.2333 214.596 54.1343 214.603 54.0609H214.702ZM216 58.2519V58.5819H213.085V58.2519H216ZM216.561 60.0119H217.397C217.507 60.2613 217.643 60.4409 217.804 60.5509C217.965 60.6536 218.119 60.7049 218.266 60.7049C218.266 60.7049 218.281 60.7049 218.31 60.7049C218.339 60.7049 218.354 60.7049 218.354 60.7049V60.8149H216.099V60.7049H216.187C216.312 60.7049 216.425 60.6463 216.528 60.5289C216.631 60.4043 216.642 60.2319 216.561 60.0119ZM219.488 54.0499L225.582 59.7919L225.692 60.9689L219.598 55.1939L219.488 54.0499ZM219.51 60.1329V60.8149H218.685V60.7049C218.685 60.7049 218.714 60.7049 218.773 60.7049C218.839 60.7049 218.872 60.7049 218.872 60.7049C219.041 60.7049 219.184 60.6499 219.301 60.5399C219.418 60.4299 219.477 60.2943 219.477 60.1329H219.51ZM219.972 60.1329C219.972 60.2943 220.031 60.4299 220.148 60.5399C220.273 60.6499 220.416 60.7049 220.577 60.7049C220.577 60.7049 220.606 60.7049 220.665 60.7049C220.731 60.7049 220.764 60.7049 220.764 60.7049V60.8149H219.939V60.1329H219.972ZM219.488 54.0499L219.961 54.6659L219.972 60.8149H219.477V55.4249C219.477 55.0509 219.459 54.7283 219.422 54.4569C219.393 54.1856 219.378 54.0499 219.378 54.0499H219.488ZM225.692 54.2149V59.5609C225.692 59.7956 225.699 60.0229 225.714 60.2429C225.729 60.4556 225.743 60.6316 225.758 60.7709C225.78 60.9029 225.791 60.9689 225.791 60.9689H225.692L225.208 60.3859V54.2149H225.692ZM225.659 54.8969V54.2149H226.484V54.3249C226.484 54.3249 226.451 54.3249 226.385 54.3249C226.326 54.3249 226.297 54.3249 226.297 54.3249C226.136 54.3249 225.993 54.3799 225.868 54.4899C225.751 54.5999 225.692 54.7356 225.692 54.8969H225.659ZM225.208 54.8969C225.201 54.7356 225.138 54.5999 225.021 54.4899C224.904 54.3799 224.761 54.3249 224.592 54.3249C224.592 54.3249 224.559 54.3249 224.493 54.3249C224.434 54.3249 224.405 54.3249 224.405 54.3249V54.2149H225.23V54.8969H225.208ZM230.414 54.2479V60.8149H229.699V54.2479H230.414ZM233.076 54.2039V54.5339H227.037V54.2039H233.076ZM233.076 54.5119V55.2709H232.955V55.0949C232.955 54.9409 232.904 54.8126 232.801 54.7099C232.706 54.5999 232.574 54.5413 232.405 54.5339V54.5119H233.076ZM233.076 54.0279V54.3139L231.844 54.2039C231.991 54.2039 232.145 54.1966 232.306 54.1819C232.475 54.1599 232.629 54.1343 232.768 54.1049C232.908 54.0756 233.01 54.0499 233.076 54.0279ZM229.721 60.1109V60.8149H228.918V60.7049C228.926 60.7049 228.948 60.7049 228.984 60.7049C229.028 60.7049 229.05 60.7049 229.05 60.7049C229.226 60.7049 229.377 60.6463 229.501 60.5289C229.626 60.4116 229.692 60.2723 229.699 60.1109H229.721ZM230.381 60.1109H230.414C230.422 60.2723 230.488 60.4116 230.612 60.5289C230.737 60.6463 230.887 60.7049 231.063 60.7049C231.063 60.7049 231.082 60.7049 231.118 60.7049C231.162 60.7049 231.184 60.7049 231.184 60.7049V60.8149H230.381V60.1109ZM227.708 54.5119V54.5339C227.54 54.5413 227.404 54.5999 227.301 54.7099C227.206 54.8126 227.158 54.9409 227.158 55.0949V55.2709H227.037V54.5119H227.708ZM227.037 54.0279C227.103 54.0499 227.202 54.0756 227.334 54.1049C227.474 54.1343 227.628 54.1599 227.796 54.1819C227.965 54.1966 228.123 54.2039 228.269 54.2039L227.037 54.3139V54.0279ZM238.743 52.9609C238.86 52.9609 238.985 52.9683 239.117 52.9829C239.256 52.9976 239.388 53.0196 239.513 53.0489C239.645 53.0709 239.762 53.0966 239.865 53.1259C239.975 53.1479 240.059 53.1736 240.118 53.2029V54.4239H240.019C240.019 54.0719 239.898 53.7969 239.656 53.5989C239.414 53.3936 239.12 53.2909 238.776 53.2909C238.372 53.2909 238.046 53.4193 237.797 53.6759C237.547 53.9253 237.423 54.2186 237.423 54.5559C237.423 54.6953 237.452 54.8603 237.511 55.0509C237.577 55.2343 237.694 55.4066 237.863 55.5679L240.03 57.5699C240.25 57.7753 240.396 57.9953 240.47 58.2299C240.543 58.4646 240.58 58.6919 240.58 58.9119C240.58 59.5206 240.393 60.0156 240.019 60.3969C239.652 60.7783 239.153 60.9689 238.523 60.9689C238.347 60.9689 238.138 60.9506 237.896 60.9139C237.661 60.8773 237.43 60.8149 237.203 60.7269C236.983 60.6316 236.799 60.5106 236.653 60.3639C236.631 60.2466 236.62 60.0999 236.62 59.9239C236.62 59.7479 236.634 59.5646 236.664 59.3739C236.693 59.1759 236.733 58.9963 236.785 58.8349H236.884C236.847 59.2089 236.895 59.5353 237.027 59.8139C237.159 60.0926 237.349 60.3053 237.599 60.4519C237.855 60.5913 238.145 60.6536 238.468 60.6389C238.871 60.6169 239.216 60.4776 239.502 60.2209C239.795 59.9569 239.942 59.6049 239.942 59.1649C239.942 58.9523 239.905 58.7616 239.832 58.5929C239.758 58.4169 239.652 58.2666 239.513 58.1419L237.401 56.1839C237.181 55.9786 237.027 55.7549 236.939 55.5129C236.851 55.2636 236.807 55.0326 236.807 54.8199C236.807 54.5119 236.88 54.2149 237.027 53.9289C237.173 53.6429 237.39 53.4119 237.676 53.2359C237.969 53.0526 238.325 52.9609 238.743 52.9609ZM240.118 53.0709V53.3019H239.282V53.0709H240.118ZM243.281 53.1149H244.733C245.203 53.1149 245.606 53.1993 245.943 53.3679C246.281 53.5366 246.541 53.7823 246.724 54.1049C246.908 54.4203 246.999 54.7979 246.999 55.2379C246.999 55.5753 246.933 55.8796 246.801 56.1509C246.669 56.4149 246.493 56.6386 246.273 56.8219C246.053 57.0053 245.804 57.1446 245.525 57.2399C245.247 57.3279 244.957 57.3609 244.656 57.3389C244.363 57.3169 244.077 57.2326 243.798 57.0859V56.9759C243.798 56.9759 243.861 56.9869 243.985 57.0089C244.11 57.0236 244.268 57.0273 244.458 57.0199C244.656 57.0053 244.862 56.9649 245.074 56.8989C245.294 56.8256 245.496 56.7009 245.679 56.5249C245.87 56.3489 246.013 56.1033 246.108 55.7879C246.13 55.7073 246.149 55.6083 246.163 55.4909C246.178 55.3663 246.182 55.2453 246.174 55.1279C246.167 54.6219 246.035 54.2149 245.778 53.9069C245.522 53.5989 245.159 53.4449 244.689 53.4449H243.391C243.391 53.4449 243.38 53.4193 243.358 53.3679C243.344 53.3093 243.325 53.2543 243.303 53.2029C243.289 53.1443 243.281 53.1149 243.281 53.1149ZM243.424 53.1149V60.8149H242.709V53.1149H243.424ZM242.742 60.0119V60.8149H241.862V60.7049C241.862 60.7049 241.884 60.7049 241.928 60.7049C241.98 60.7049 242.005 60.7049 242.005 60.7049C242.196 60.7049 242.357 60.6389 242.489 60.5069C242.629 60.3676 242.702 60.2026 242.709 60.0119H242.742ZM242.742 53.9179H242.709C242.709 53.7273 242.64 53.5659 242.5 53.4339C242.361 53.2946 242.196 53.2249 242.005 53.2249C242.005 53.2249 241.983 53.2249 241.939 53.2249C241.895 53.2249 241.873 53.2249 241.873 53.2249L241.862 53.1149H242.742V53.9179ZM243.391 60.0119H243.424C243.432 60.2026 243.501 60.3676 243.633 60.5069C243.773 60.6389 243.938 60.7049 244.128 60.7049C244.128 60.7049 244.15 60.7049 244.194 60.7049C244.246 60.7049 244.271 60.7049 244.271 60.7049V60.8149H243.391V60.0119ZM250.727 52.9609L253.983 60.7489H253.048L250.507 54.0059L250.727 52.9609ZM248.362 60.0119C248.31 60.1586 248.303 60.2833 248.34 60.3859C248.376 60.4886 248.435 60.5693 248.516 60.6279C248.604 60.6793 248.692 60.7049 248.78 60.7049H248.879V60.8149H246.668V60.7049C246.668 60.7049 246.686 60.7049 246.723 60.7049C246.752 60.7049 246.767 60.7049 246.767 60.7049C246.935 60.7049 247.108 60.6536 247.284 60.5509C247.467 60.4409 247.617 60.2613 247.735 60.0119H248.362ZM250.727 52.9609L250.826 53.7309L248.065 60.7819H247.405L250.221 54.0939C250.221 54.0939 250.239 54.0499 250.276 53.9619C250.32 53.8666 250.367 53.7529 250.419 53.6209C250.477 53.4889 250.525 53.3606 250.562 53.2359C250.606 53.1113 250.628 53.0196 250.628 52.9609H250.727ZM252.278 57.8119V58.1419H248.835V57.8119H252.278ZM252.773 60.0119H253.675C253.785 60.2613 253.931 60.4409 254.115 60.5509C254.298 60.6536 254.474 60.7049 254.643 60.7049C254.643 60.7049 254.657 60.7049 254.687 60.7049C254.716 60.7049 254.731 60.7049 254.731 60.7049V60.8149H252.256V60.7049H252.355C252.494 60.7049 252.619 60.6463 252.729 60.5289C252.839 60.4043 252.853 60.2319 252.773 60.0119Z" fill="white"/>
<line x1="263.486" y1="56.8149" x2="295.486" y2="56.8149" stroke="white" stroke-linecap="round"/>
</svg>
