<svg width="296" height="83" viewBox="0 0 296 83" fill="none" xmlns="http://www.w3.org/2000/svg">
<path opacity="0.585271" d="M51.8324 0.0524766C50.68 -0.0291035 49.5043 -0.00763833 47.0012 0.0626262C41.9949 0.203126 41.2528 0.226147 36.456 1.00654C31.6589 1.78695 31.4507 2.10684 27.6156 3.28007C23.7804 4.45326 24.2647 4.34907 21.1401 5.9291C18.0155 7.50912 17.7992 7.7355 15.1721 9.58296C12.5451 11.4304 12.7056 11.3649 10.6353 13.318C8.56494 15.2711 8.8225 14.9234 7.04231 17.1241C5.26215 19.3249 4.97283 19.4347 3.52038 22.1177C2.06794 24.8007 1.15553 28.2684 1.15553 28.2684C1.15553 28.2684 0.353001 31.3625 0.120268 33.9622C-0.112458 36.5622 0.0318513 36.3504 0.221764 38.6716C0.411648 40.9932 0.258485 40.6106 0.871339 43.2492C1.48423 45.8878 1.63011 46.818 2.67797 49.2272C3.72584 51.6368 3.77744 51.7154 5.30671 54.0283C6.83597 56.3407 8.90983 58.5548 8.90983 58.5548C8.90983 58.5548 11.378 61.0342 14.0861 62.8787C16.7942 64.7229 20.1048 66.1266 20.1048 66.1266L1.85585 67.0399L4.01772 70.1559L18.4403 69.6993L24.2763 70.2371C24.2763 70.2371 27.8109 71.0211 30.8939 72.4193C33.9769 73.8172 36.608 75.8296 36.608 75.8296C36.608 75.8296 38.3433 77.2249 39.6633 78.4481C40.9832 79.6712 41.8858 80.7216 41.8858 80.7216L42.1398 80.9044L42.0888 80.7521L40.7795 78.032C40.7795 78.032 39.6925 76.2096 38.3742 74.7231C37.0559 73.2365 35.3293 71.6986 35.3293 71.6986L30.5589 68.4407L23.8602 64.7157L18.0343 61.7215C18.0343 61.7215 16.3267 60.8757 14.7357 59.7221C13.1447 58.5685 11.6705 57.1033 11.6705 57.1033C11.6705 57.1033 10.0955 55.6457 8.99103 54.3225C7.88659 52.9993 7.2453 51.8155 7.2453 51.8155C7.2453 51.8155 6.04021 50.1987 5.15448 48.121C4.26875 46.0434 3.70307 43.5029 3.70307 43.5029C3.70307 43.5029 5.63406 46.7686 8.1689 49.4202C10.7038 52.0717 10.8129 52.0438 13.8425 54.1095C16.8722 56.1748 20.2875 57.6821 20.2875 57.6821C20.2875 57.6821 22.9541 59.1599 25.3116 60.6559C27.6692 62.1518 30.1428 64.1168 30.1428 64.1168C30.1428 64.1168 31.9099 65.5868 33.5836 67.1922C35.2572 68.7973 36.8415 70.5414 36.8415 70.5414C36.8415 70.5414 38.5275 72.4687 39.6529 73.9621C40.7786 75.4551 41.358 76.347 41.358 76.347L42.4746 78.2655L43.8449 81.0464L44.2103 82.4166L44.3928 82.5485H44.4435C44.4139 81.5475 44.3347 79.2568 44.0174 77.0677C43.7605 75.295 43.2979 73.5415 42.9313 72.5207C42.1385 70.3131 41.4005 67.9421 40.5259 66.1974C39.2414 63.6355 37.8967 61.7059 36.2426 58.9913C35.1516 57.2001 32.0486 53.2393 27.4024 49.6537C24.9221 47.7394 22.0281 46.1499 19.638 44.6396C15.8924 42.2732 13.0618 40.3563 12.4723 39.6564C11.7589 38.8087 8.89165 36.4426 7.43812 34.3987C5.71743 31.9791 5.21651 28.869 5.14431 27.8929C4.9914 25.8249 5.71682 23.7806 5.91568 23.3052C6.53028 21.836 7.61897 19.6984 10.1075 16.8602C12.3038 14.3553 15.4733 11.7307 19.3335 9.46116C27.0448 4.92729 38.3693 2.65076 46.4328 2.65079C62.184 2.65079 76.4633 8.38722 82.8701 16.2411C84.0854 17.7309 85.2696 19.0185 86.3005 21.052C87.1206 22.6688 87.6435 23.5281 88.0056 25.8223C88.0907 26.361 88.306 28.6668 87.4171 30.9174C86.5327 33.1564 84.7736 35.7044 83.479 37.0276C81.1821 39.3751 78.1415 41.4473 75.9784 42.9751C72.7688 45.2427 68.6707 47.5591 65.6765 49.9278C61.3574 53.3446 59.1918 56.4034 58.1761 57.7633C55.228 61.7098 53.2481 65.6271 52.7256 66.6238C51.9422 68.1182 51.228 70.1315 50.6044 72.1046C50.0831 73.7536 49.5858 75.7237 49.3052 77.4942C48.9538 79.7121 48.9025 81.7433 48.8892 82.6297H49.011L49.1428 82.518L49.6199 80.742L50.9902 77.9609L52.0964 76.0427C52.0964 76.0427 52.6762 75.1508 53.8016 73.6574C54.927 72.1641 56.623 70.227 56.623 70.227C56.623 70.227 58.2076 68.493 59.8813 66.8876C61.5549 65.2825 63.3117 63.8125 63.3117 63.8125C63.3117 63.8125 65.7957 61.8371 68.153 60.3411C70.5106 58.8452 73.167 57.3775 73.167 57.3775C73.167 57.3775 76.5825 55.8701 79.6121 53.8048C82.6417 51.7395 82.7509 51.7674 85.2855 49.1158C87.8205 46.464 89.7513 43.1985 89.7513 43.1985C89.7513 43.1985 89.196 45.739 88.3103 47.8167C87.4246 49.894 86.2092 51.5111 86.2092 51.5111C86.2092 51.5111 85.5782 52.6846 84.4735 54.0078C83.3693 55.331 81.794 56.799 81.794 56.799C81.794 56.799 80.3202 58.2638 78.729 59.4174C77.1379 60.5711 75.4305 61.4172 75.4305 61.4172L69.6044 64.4111L62.8956 68.136L58.1355 71.394C58.1355 71.394 56.3986 72.9322 55.0803 74.4187C53.7623 75.9053 52.6749 77.7273 52.6749 77.7273L51.3757 80.4474L51.2744 80.7521L51.5687 80.5085C51.5687 80.5085 53.5888 78.2662 55.5372 76.6416C57.4856 75.0167 59.3636 74.0027 59.3636 74.0027C59.3636 74.0027 61.9096 72.2638 64.7632 71.191C67.6167 70.1182 71.1371 69.8311 71.1371 69.8311L78.8914 69.7499L89.1018 70.227L91.7001 66.9587L72.8829 66.2484C72.8829 66.2484 76.3431 64.6322 78.6173 63.1018C80.8915 61.5714 82.2205 60.2905 82.2205 60.2905C82.2205 60.2905 84.6226 58.2729 86.2703 56.2206C87.9179 54.1679 89.3048 51.2676 89.3048 51.2676C89.3048 51.2676 90.5906 49.1126 91.5581 46.1012C92.5257 43.0901 92.6848 40.0319 92.6848 40.0319C92.6848 40.0319 93.2152 36.5547 92.8674 33.0285C92.5195 29.5024 91.487 25.8528 91.487 25.8528C91.487 25.8528 90.36 22.6442 88.3002 19.3976C86.2401 16.1511 86.4284 16.0319 83.0526 12.9425C79.6771 9.85302 76.6543 8.00417 74.8517 6.95423C73.7442 6.30897 70.6847 4.71033 66.113 3.11767C61.5413 1.52497 61.3058 1.38073 56.5116 0.671603C54.1144 0.317045 52.9851 0.13406 51.8324 0.0524766ZM90.0459 31.1204L90.1167 34.7541C90.1167 34.7541 89.9875 36.5859 89.5282 38.1845C89.069 39.7834 88.2797 41.1481 88.2797 41.1481C88.2797 41.1481 86.0114 44.4918 83.4079 47.0655C80.8047 49.6391 77.7241 51.3689 77.7241 51.3689L71.5837 54.9214C71.5837 54.9214 66.6122 57.2609 62.1954 60.8283C58.4084 63.8869 55.2115 68.0626 53.8828 69.963L54.6743 67.6693C54.6743 67.6693 55.7532 64.8921 58.6633 61.2142C61.5734 57.536 62.5052 56.1186 66.3972 52.7086C70.2891 49.2987 74.2733 47.3191 74.2733 47.3191C74.2733 47.3191 78.6533 44.854 81.4186 42.6808C84.1838 40.5077 86.0468 38.3978 86.0468 38.3978C86.0468 38.3978 88.0602 35.5582 89.0612 33.7391C90.0625 31.92 90.0459 31.1204 90.0459 31.1204ZM3.44934 31.4046C3.44934 31.4046 3.43281 32.2042 4.43384 34.0233C5.4349 35.8424 7.45842 38.682 7.45842 38.682C7.45842 38.682 9.32144 40.8019 12.0866 42.9751C14.8519 45.1486 19.232 47.6033 19.232 47.6033C19.232 47.6033 23.2568 49.7047 27.1487 53.1146C31.0405 56.5246 31.9219 57.8201 34.832 61.4984C37.7421 65.1763 38.8308 67.9535 38.8308 67.9535L39.6227 70.2472C38.2936 68.3468 35.0971 64.171 31.31 61.1125C26.8931 57.5451 21.9216 55.2056 21.9216 55.2056L15.771 51.6531C15.771 51.6531 12.6905 49.9233 10.0872 47.3496C7.48385 44.776 5.22551 41.4323 5.22551 41.4323C5.22551 41.4323 4.43628 40.0676 3.97712 38.4687C3.51797 36.87 3.38845 35.0382 3.38845 35.0382L3.44934 31.4046ZM47.0723 21.0825C42.6071 21.0825 38.1988 23.1109 35.8772 27.1926C34.4884 29.6349 33.7661 32.6728 33.7661 35.8401C33.7661 40.1686 37.4368 48.73 40.6477 55.5099C41.8699 58.0907 43.0842 61.791 44.0986 65.3146C44.4626 66.5787 44.7813 68.9422 45.0525 71.7493H45.3366C45.033 68.0545 44.6822 64.7388 44.2304 63.2035C43.2583 59.8998 42.1031 56.4275 40.9319 54.0078C37.8552 47.651 34.3244 39.6246 34.3244 35.566C34.3244 32.5965 35.1552 29.5738 36.4862 27.2839C38.7107 23.457 42.7127 21.6407 46.9911 21.6407C50.2448 21.6407 53.6226 23.3208 55.862 25.5178C58.3294 27.9388 59.5867 31.1641 59.5867 35.3224C59.5867 39.3141 56.244 47.4052 53.0403 53.6931C51.7892 56.1488 50.5394 59.6474 49.4881 62.98C48.9873 64.5673 48.5176 67.972 48.0772 71.7493H48.402C48.7774 68.8386 49.1825 66.3897 49.5894 65.071C50.6869 61.5162 51.9883 57.7938 53.2939 55.1751C56.6376 48.4685 60.1249 39.8337 60.1249 35.5761C60.1249 31.1411 58.6299 27.4098 56.0546 24.8277C53.7178 22.4843 50.468 21.0825 47.0723 21.0825ZM44.5958 27.9842C41.9046 29.6448 39.9676 33.9694 39.9676 39.088C39.9676 40.8847 40.2037 42.586 40.6272 44.1118C41.2079 46.2035 42.7198 50.6664 44.1593 54.5966C44.995 56.8776 45.792 61.6975 46.2704 64.9999C46.4442 66.1971 46.5484 70.7246 46.6157 74.7029H46.8186C46.9154 70.7032 47.0535 66.137 47.2448 64.9086C47.7514 61.6575 48.5699 56.9981 49.4371 54.7792C50.9447 50.9226 52.6528 46.4526 53.2533 44.4672C53.7421 42.8513 54.0146 41.0267 54.0146 39.088C54.0146 33.9694 52.0877 29.6447 49.3965 27.9842C51.517 29.6085 52.9997 33.312 52.9997 37.6265C52.9997 39.3472 52.7681 40.9728 52.3501 42.4067C51.8366 44.169 50.3708 48.1288 49.0821 51.5517C48.3403 53.5209 46.7881 58.8695 46.7881 58.8695C46.7881 58.8695 45.2899 53.4134 44.5757 51.3894C43.3447 47.9015 42.0475 43.9384 41.5509 42.0819C41.1888 40.7275 40.9926 39.2209 40.9926 37.6265C40.9926 33.312 42.4756 29.6085 44.5958 27.9842ZM42.6877 37.0477L43.0024 39.027L44.1593 41.9095L45.1742 44.5178L46.1285 47.4919L46.8998 50.831L48.1379 46.5682L48.808 44.6396L50.3812 40.9962L51.112 39.2706L51.4975 37.2101C51.4975 37.2101 50.858 38.608 50.1172 40.4986C49.3517 42.4522 49.5397 41.9127 48.5845 44.3148C47.6215 46.7381 46.9304 49.6638 46.9304 49.6638C46.9304 49.6638 46.4175 47.0258 45.6108 44.6701C44.804 42.3148 44.6673 42.1641 43.9462 40.255C43.2271 38.3514 42.7202 37.0552 42.7182 37.0477H42.6877Z" fill="url(#paint0_radial_427_508)"/>
<path d="M142.982 40.5748H143.27V40.8148H138.038V40.5748H138.35C138.75 40.5748 139.094 40.4388 139.382 40.1668C139.686 39.8788 139.854 39.5268 139.886 39.1108V32.8708H130.598V39.1348C130.598 41.3748 130.054 42.8788 128.966 43.6468C128.47 43.9988 127.83 44.2628 127.046 44.4388L126.926 44.2228C127.646 43.8388 128.174 43.2468 128.51 42.4468C128.862 41.6468 129.038 40.5428 129.038 39.1348V25.7428C129.038 25.3268 128.886 24.9748 128.582 24.6868C128.278 24.3988 127.918 24.2548 127.502 24.2548H127.214V24.0148H132.446V24.2548H132.134C131.718 24.2548 131.358 24.3988 131.054 24.6868C130.766 24.9748 130.614 25.3268 130.598 25.7428V32.1508H139.886V26.1748C139.902 24.1268 140.358 22.7028 141.254 21.9028C141.798 21.4228 142.534 21.0788 143.462 20.8708L143.582 21.0868C142.862 21.4708 142.326 22.0628 141.974 22.8628C141.622 23.6628 141.446 24.7668 141.446 26.1748V39.0628C141.446 39.4788 141.59 39.8388 141.878 40.1428C142.182 40.4308 142.55 40.5748 142.982 40.5748ZM148.068 26.1028C149.78 24.4868 151.996 23.6788 154.716 23.6788C157.452 23.6788 159.676 24.4868 161.388 26.1028C163.1 27.7028 163.956 29.8068 163.956 32.4148C163.956 35.0228 163.1 37.1348 161.388 38.7508C159.676 40.3508 157.452 41.1508 154.716 41.1508C151.996 41.1508 149.78 40.3508 148.068 38.7508C146.356 37.1348 145.5 35.0228 145.5 32.4148C145.5 29.8068 146.356 27.7028 148.068 26.1028ZM149.364 38.2228C150.724 39.6948 152.508 40.4308 154.716 40.4308C156.924 40.4308 158.7 39.6948 160.044 38.2228C161.404 36.7508 162.084 34.8148 162.084 32.4148C162.084 30.0148 161.404 28.0788 160.044 26.6068C158.7 25.1348 156.924 24.3988 154.716 24.3988C152.508 24.3988 150.724 25.1348 149.364 26.6068C148.02 28.0788 147.348 30.0148 147.348 32.4148C147.348 34.8148 148.02 36.7508 149.364 38.2228ZM178.411 26.1508C178.411 25.7668 178.275 25.4388 178.003 25.1668C177.731 24.8788 177.411 24.7268 177.043 24.7108H172.483V39.0868C172.499 39.5028 172.651 39.8548 172.939 40.1428C173.243 40.4308 173.603 40.5748 174.019 40.5748H174.331V40.8148H169.075V40.5748H169.387C169.803 40.5748 170.155 40.4308 170.443 40.1428C170.747 39.8548 170.907 39.5108 170.923 39.1108V24.7108H166.363C165.979 24.7268 165.651 24.8788 165.379 25.1668C165.123 25.4388 164.995 25.7668 164.995 26.1508V26.5588L164.755 26.5828V23.5588C164.995 23.6548 165.411 23.7508 166.003 23.8468C166.595 23.9428 167.139 23.9908 167.635 23.9908H175.747C176.531 23.9908 177.179 23.9348 177.691 23.8228C178.219 23.6948 178.539 23.6068 178.651 23.5588V26.5828L178.411 26.5588V26.1508ZM180.863 40.5748C181.279 40.5748 181.631 40.4308 181.919 40.1428C182.223 39.8388 182.383 39.4788 182.399 39.0628V25.6228C182.399 25.2388 182.247 24.9188 181.943 24.6628C181.639 24.3908 181.279 24.2548 180.863 24.2548H180.575L180.551 24.0148H187.583C188.079 24.0148 188.615 23.9668 189.191 23.8708C189.783 23.7748 190.199 23.6788 190.439 23.5828V26.6068H190.199V26.1748C190.199 25.7908 190.063 25.4628 189.791 25.1908C189.535 24.9188 189.223 24.7748 188.855 24.7588H183.959V32.1748H188.015C188.335 32.1588 188.607 32.0388 188.831 31.8148C189.055 31.5908 189.167 31.3108 189.167 30.9748V30.6388H189.407V34.4308H189.167V34.0708C189.167 33.7508 189.055 33.4788 188.831 33.2548C188.623 33.0308 188.359 32.9108 188.039 32.8948H183.959V40.0708H187.391C188.575 40.0708 189.479 39.8068 190.103 39.2788C190.727 38.7508 191.247 37.9668 191.663 36.9268H191.903L190.511 40.8148H180.551V40.5748H180.863ZM194.48 40.5748C194.896 40.5748 195.248 40.4308 195.536 40.1428C195.84 39.8388 196 39.4788 196.016 39.0628V25.7668C196 25.3508 195.84 24.9988 195.536 24.7108C195.248 24.4068 194.896 24.2548 194.48 24.2548H194.168V24.0148H199.424V24.2548H199.112C198.536 24.2548 198.096 24.5028 197.792 24.9988C197.648 25.2388 197.576 25.4948 197.576 25.7668V40.0708H201.008C202.192 40.0708 203.096 39.8068 203.72 39.2788C204.344 38.7508 204.864 37.9668 205.28 36.9268H205.52L204.128 40.8148H194.168V40.5748H194.48ZM229.7 40.5748H229.988V40.8148H224.756V40.5748H225.068C225.468 40.5748 225.812 40.4388 226.1 40.1668C226.404 39.8788 226.572 39.5268 226.604 39.1108V32.8708H217.316V39.1348C217.316 41.3748 216.772 42.8788 215.684 43.6468C215.188 43.9988 214.548 44.2628 213.764 44.4388L213.644 44.2228C214.364 43.8388 214.892 43.2468 215.228 42.4468C215.58 41.6468 215.756 40.5428 215.756 39.1348V25.7428C215.756 25.3268 215.604 24.9748 215.3 24.6868C214.996 24.3988 214.636 24.2548 214.22 24.2548H213.932V24.0148H219.164V24.2548H218.852C218.436 24.2548 218.076 24.3988 217.772 24.6868C217.484 24.9748 217.332 25.3268 217.316 25.7428V32.1508H226.604V26.1748C226.62 24.1268 227.076 22.7028 227.972 21.9028C228.516 21.4228 229.252 21.0788 230.18 20.8708L230.3 21.0868C229.58 21.4708 229.044 22.0628 228.692 22.8628C228.34 23.6628 228.164 24.7668 228.164 26.1748V39.0628C228.164 39.4788 228.308 39.8388 228.596 40.1428C228.9 40.4308 229.268 40.5748 229.7 40.5748ZM234.787 26.1028C236.499 24.4868 238.715 23.6788 241.435 23.6788C244.171 23.6788 246.395 24.4868 248.107 26.1028C249.819 27.7028 250.675 29.8068 250.675 32.4148C250.675 35.0228 249.819 37.1348 248.107 38.7508C246.395 40.3508 244.171 41.1508 241.435 41.1508C238.715 41.1508 236.499 40.3508 234.787 38.7508C233.075 37.1348 232.219 35.0228 232.219 32.4148C232.219 29.8068 233.075 27.7028 234.787 26.1028ZM236.083 38.2228C237.443 39.6948 239.227 40.4308 241.435 40.4308C243.643 40.4308 245.419 39.6948 246.763 38.2228C248.123 36.7508 248.803 34.8148 248.803 32.4148C248.803 30.0148 248.123 28.0788 246.763 26.6068C245.419 25.1348 243.643 24.3988 241.435 24.3988C239.227 24.3988 237.443 25.1348 236.083 26.6068C234.739 28.0788 234.067 30.0148 234.067 32.4148C234.067 34.8148 234.739 36.7508 236.083 38.2228ZM268.891 24.2548H268.507C268.171 24.2548 267.875 24.3668 267.619 24.5908C267.379 24.7988 267.251 25.0628 267.235 25.3828V34.8868C267.235 36.7588 266.643 38.2708 265.459 39.4228C264.275 40.5748 262.699 41.1508 260.731 41.1508C258.763 41.1508 257.163 40.5828 255.931 39.4468C254.715 38.2948 254.107 36.7828 254.107 34.9108V25.4548C254.107 24.9748 253.899 24.6228 253.483 24.3988C253.291 24.3028 253.075 24.2548 252.835 24.2548H252.451V24.0148H257.323V24.2548H256.939C256.587 24.2548 256.291 24.3668 256.051 24.5908C255.811 24.7988 255.683 25.0708 255.667 25.4068V34.5748C255.667 36.3188 256.131 37.7268 257.059 38.7988C258.003 39.8708 259.259 40.4068 260.827 40.4068C262.395 40.4068 263.667 39.9028 264.643 38.8948C265.619 37.8708 266.107 36.5348 266.107 34.8868V25.4068C266.091 25.0708 265.963 24.7988 265.723 24.5908C265.483 24.3668 265.187 24.2548 264.835 24.2548H264.451V24.0148H268.891V24.2548ZM271.559 39.8308C271.511 39.6068 271.487 39.1748 271.487 38.5348C271.487 37.8948 271.607 37.2148 271.847 36.4948H272.063C272.047 36.6708 272.039 36.8468 272.039 37.0228C272.039 37.9988 272.335 38.8148 272.927 39.4708C273.519 40.1108 274.303 40.4308 275.279 40.4308C276.287 40.4308 277.111 40.1268 277.751 39.5188C278.407 38.9108 278.735 38.1508 278.735 37.2388C278.735 36.3108 278.423 35.5588 277.799 34.9828L273.191 30.7108C272.327 29.9108 271.895 28.9428 271.895 27.8068C271.895 26.6708 272.271 25.7028 273.023 24.9028C273.791 24.0868 274.823 23.6788 276.119 23.6788C276.727 23.6788 277.415 23.7588 278.183 23.9188H279.119V26.8708H278.903C278.903 26.1188 278.639 25.5188 278.111 25.0708C277.599 24.6228 276.935 24.3988 276.119 24.3988C275.303 24.3988 274.615 24.6708 274.055 25.2148C273.511 25.7588 273.239 26.4388 273.239 27.2548C273.239 28.0708 273.559 28.7748 274.199 29.3668L278.927 33.7348C279.727 34.4708 280.127 35.4788 280.127 36.7588C280.127 38.0388 279.719 39.0948 278.903 39.9268C278.087 40.7428 276.999 41.1508 275.639 41.1508C274.935 41.1508 274.183 41.0388 273.383 40.8148C272.599 40.6068 271.991 40.2788 271.559 39.8308ZM283.261 40.5748C283.677 40.5748 284.029 40.4308 284.317 40.1428C284.621 39.8388 284.781 39.4788 284.797 39.0628V25.6228C284.797 25.2388 284.645 24.9188 284.341 24.6628C284.037 24.3908 283.677 24.2548 283.261 24.2548H282.973L282.949 24.0148H289.981C290.477 24.0148 291.013 23.9668 291.589 23.8708C292.181 23.7748 292.597 23.6788 292.837 23.5828V26.6068H292.597V26.1748C292.597 25.7908 292.461 25.4628 292.189 25.1908C291.933 24.9188 291.621 24.7748 291.253 24.7588H286.357V32.1748H290.413C290.733 32.1588 291.005 32.0388 291.229 31.8148C291.453 31.5908 291.565 31.3108 291.565 30.9748V30.6388H291.805V34.4308H291.565V34.0708C291.565 33.7508 291.453 33.4788 291.229 33.2548C291.021 33.0308 290.757 32.9108 290.437 32.8948H286.357V40.0708H289.789C290.973 40.0708 291.877 39.8068 292.501 39.2788C293.125 38.7508 293.645 37.9668 294.061 36.9268H294.301L292.909 40.8148H282.949V40.5748H283.261Z" fill="#8D5C0D"/>
<line x1="125.486" y1="56.8148" x2="157.486" y2="56.8148" stroke="#8D5C0D" stroke-linecap="round"/>
<path d="M167.933 54.2148H169.352C169.696 54.2148 170.004 54.2552 170.276 54.3358C170.554 54.4165 170.789 54.5338 170.98 54.6878C171.178 54.8418 171.328 55.0288 171.431 55.2488C171.533 55.4688 171.585 55.7182 171.585 55.9968C171.585 56.3048 171.511 56.5908 171.365 56.8548C171.218 57.1188 171.013 57.3352 170.749 57.5038C170.492 57.6725 170.199 57.7752 169.869 57.8118C169.993 57.8632 170.136 57.9768 170.298 58.1528C170.466 58.3288 170.609 58.5012 170.727 58.6698C170.727 58.6698 170.774 58.7358 170.87 58.8678C170.965 58.9925 171.086 59.1502 171.233 59.3408C171.387 59.5242 171.537 59.7002 171.684 59.8688C171.838 60.0375 171.977 60.1842 172.102 60.3088C172.234 60.4335 172.373 60.5325 172.52 60.6058C172.674 60.6718 172.85 60.7048 173.048 60.7048V60.8148H172.707C172.303 60.8148 171.97 60.7635 171.706 60.6608C171.449 60.5582 171.24 60.4335 171.079 60.2868C170.917 60.1328 170.778 59.9862 170.661 59.8468C170.631 59.8102 170.562 59.7185 170.452 59.5718C170.349 59.4178 170.235 59.2528 170.111 59.0768C169.986 58.9008 169.872 58.7432 169.77 58.6038C169.667 58.4572 169.605 58.3692 169.583 58.3398C169.436 58.1492 169.267 57.9805 169.077 57.8338C168.886 57.6798 168.684 57.6028 168.472 57.6028V57.4928C168.472 57.4928 168.53 57.4965 168.648 57.5038C168.765 57.5038 168.915 57.5002 169.099 57.4928C169.304 57.4855 169.509 57.4708 169.715 57.4488C169.92 57.4195 170.111 57.3388 170.287 57.2068C170.47 57.0748 170.613 56.8548 170.716 56.5468C170.745 56.4662 170.767 56.3708 170.782 56.2608C170.796 56.1508 170.8 56.0372 170.793 55.9198C170.785 55.7145 170.745 55.5312 170.672 55.3698C170.606 55.2085 170.507 55.0692 170.375 54.9518C170.25 54.8345 170.1 54.7428 169.924 54.6768C169.748 54.6108 169.55 54.5742 169.33 54.5668C168.985 54.5522 168.684 54.5485 168.428 54.5558C168.171 54.5632 168.043 54.5632 168.043 54.5558C168.043 54.5485 168.032 54.5192 168.01 54.4678C167.995 54.4092 167.977 54.3542 167.955 54.3028C167.94 54.2442 167.933 54.2148 167.933 54.2148ZM168.065 54.2148V60.8148H167.361V54.2148H168.065ZM167.394 60.1108L167.526 60.8148H166.591V60.7048C166.591 60.7048 166.616 60.7048 166.668 60.7048C166.719 60.7048 166.745 60.7048 166.745 60.7048C166.921 60.7048 167.067 60.6462 167.185 60.5288C167.302 60.4115 167.364 60.2722 167.372 60.1108H167.394ZM167.394 54.9078H167.372C167.364 54.7392 167.302 54.5998 167.185 54.4898C167.067 54.3798 166.921 54.3248 166.745 54.3248C166.745 54.3248 166.719 54.3248 166.668 54.3248C166.616 54.3248 166.591 54.3248 166.591 54.3248V54.2148H167.526L167.394 54.9078ZM168.032 60.1108H168.065C168.072 60.2722 168.134 60.4115 168.252 60.5288C168.369 60.6462 168.516 60.7048 168.692 60.7048C168.692 60.7048 168.714 60.7048 168.758 60.7048C168.809 60.7048 168.835 60.7048 168.835 60.7048L168.846 60.8148H167.9L168.032 60.1108ZM174.983 54.2148V60.8148H174.279V54.2148H174.983ZM177.942 60.4738L177.92 60.8148H174.961V60.4738H177.942ZM177.425 57.3498V57.6798H174.961V57.3498H177.425ZM177.931 54.2148V54.5558H174.961V54.2148H177.931ZM178.558 59.2418L177.953 60.8148H176.281L176.655 60.4738C177.022 60.4738 177.315 60.4225 177.535 60.3198C177.762 60.2098 177.946 60.0632 178.085 59.8798C178.224 59.6892 178.345 59.4765 178.448 59.2418H178.558ZM177.425 57.6578V58.2848H177.304V58.1418C177.304 58.0172 177.267 57.9108 177.194 57.8228C177.121 57.7275 177.007 57.6798 176.853 57.6798V57.6578H177.425ZM177.425 56.7448V57.3718H176.853V57.3498C177.007 57.3498 177.121 57.3058 177.194 57.2178C177.267 57.1225 177.304 57.0125 177.304 56.8878V56.7448H177.425ZM177.931 54.5228V55.2818H177.81V55.1168C177.81 54.9628 177.759 54.8308 177.656 54.7208C177.561 54.6108 177.429 54.5558 177.26 54.5558V54.5228H177.931ZM177.931 54.0388V54.3248L176.677 54.2148C176.904 54.2148 177.146 54.1965 177.403 54.1598C177.66 54.1158 177.836 54.0755 177.931 54.0388ZM174.301 60.1108L174.444 60.8148H173.487V60.7048C173.487 60.7048 173.513 60.7048 173.564 60.7048C173.615 60.7048 173.641 60.7048 173.641 60.7048C173.824 60.7048 173.975 60.6462 174.092 60.5288C174.209 60.4115 174.272 60.2722 174.279 60.1108H174.301ZM174.301 54.9078H174.279C174.272 54.7392 174.209 54.5998 174.092 54.4898C173.975 54.3798 173.824 54.3248 173.641 54.3248C173.641 54.3248 173.615 54.3248 173.564 54.3248C173.513 54.3248 173.487 54.3248 173.487 54.3248V54.2148H174.444L174.301 54.9078ZM181.461 54.0608C181.666 54.0608 181.846 54.0682 182 54.0828C182.154 54.0975 182.286 54.1158 182.396 54.1378C182.513 54.1525 182.612 54.1745 182.693 54.2038C182.781 54.2258 182.858 54.2478 182.924 54.2698L182.935 55.3588H182.803C182.803 55.0582 182.7 54.8235 182.495 54.6548C182.29 54.4788 181.971 54.3908 181.538 54.3908C181.171 54.3908 180.856 54.4935 180.592 54.6988C180.335 54.8968 180.211 55.1425 180.218 55.4358C180.218 55.5312 180.229 55.6302 180.251 55.7328C180.28 55.8282 180.324 55.9235 180.383 56.0188C180.449 56.1142 180.537 56.2095 180.647 56.3048L182.869 58.0208C183.038 58.1602 183.162 58.3398 183.243 58.5598C183.324 58.7725 183.368 58.9852 183.375 59.1978C183.382 59.5205 183.298 59.8175 183.122 60.0888C182.946 60.3602 182.708 60.5765 182.407 60.7378C182.114 60.8918 181.787 60.9688 181.428 60.9688C181.215 60.9688 180.984 60.9505 180.735 60.9138C180.493 60.8772 180.266 60.8222 180.053 60.7488C179.84 60.6682 179.664 60.5692 179.525 60.4518C179.503 60.3492 179.492 60.2208 179.492 60.0668C179.492 59.9055 179.503 59.7368 179.525 59.5608C179.554 59.3848 179.591 59.2272 179.635 59.0878H179.767C179.738 59.4178 179.785 59.7002 179.91 59.9348C180.035 60.1695 180.218 60.3492 180.46 60.4738C180.702 60.5912 180.984 60.6462 181.307 60.6388C181.762 60.6242 182.117 60.5105 182.374 60.2978C182.638 60.0778 182.77 59.7882 182.77 59.4288C182.77 59.2528 182.737 59.0952 182.671 58.9558C182.612 58.8092 182.513 58.6735 182.374 58.5488L180.174 56.8548C179.969 56.6788 179.829 56.4845 179.756 56.2718C179.683 56.0592 179.646 55.8575 179.646 55.6668C179.646 55.3662 179.727 55.0948 179.888 54.8528C180.049 54.6108 180.266 54.4202 180.537 54.2808C180.816 54.1342 181.124 54.0608 181.461 54.0608ZM182.913 54.1598L182.924 54.3578H182.143V54.1598H182.913ZM187.51 54.2478V60.8148H186.795V54.2478H187.51ZM190.172 54.2038V54.5338H184.133V54.2038H190.172ZM190.172 54.5118V55.2708H190.051V55.0948C190.051 54.9408 190 54.8125 189.897 54.7098C189.802 54.5998 189.67 54.5412 189.501 54.5338V54.5118H190.172ZM190.172 54.0278V54.3138L188.94 54.2038C189.087 54.2038 189.241 54.1965 189.402 54.1818C189.571 54.1598 189.725 54.1342 189.864 54.1048C190.003 54.0755 190.106 54.0498 190.172 54.0278ZM186.817 60.1108V60.8148H186.014V60.7048C186.021 60.7048 186.043 60.7048 186.08 60.7048C186.124 60.7048 186.146 60.7048 186.146 60.7048C186.322 60.7048 186.472 60.6462 186.597 60.5288C186.722 60.4115 186.788 60.2722 186.795 60.1108H186.817ZM187.477 60.1108H187.51C187.517 60.2722 187.583 60.4115 187.708 60.5288C187.833 60.6462 187.983 60.7048 188.159 60.7048C188.159 60.7048 188.177 60.7048 188.214 60.7048C188.258 60.7048 188.28 60.7048 188.28 60.7048V60.8148H187.477V60.1108ZM184.804 54.5118V54.5338C184.635 54.5412 184.5 54.5998 184.397 54.7098C184.302 54.8125 184.254 54.9408 184.254 55.0948V55.2708H184.133V54.5118H184.804ZM184.133 54.0278C184.199 54.0498 184.298 54.0755 184.43 54.1048C184.569 54.1342 184.723 54.1598 184.892 54.1818C185.061 54.1965 185.218 54.2038 185.365 54.2038L184.133 54.3138V54.0278ZM193.25 54.0608L196.275 60.7488H195.406L193.063 55.0398L193.25 54.0608ZM191.127 60.0118C191.046 60.2318 191.057 60.4042 191.16 60.5288C191.263 60.6462 191.38 60.7048 191.512 60.7048H191.6V60.8148H189.499V60.7048C189.499 60.7048 189.514 60.7048 189.543 60.7048C189.572 60.7048 189.587 60.7048 189.587 60.7048C189.741 60.7048 189.899 60.6535 190.06 60.5508C190.221 60.4408 190.361 60.2612 190.478 60.0118H191.127ZM193.25 54.0608L193.327 54.8198L190.808 60.7818H190.115L192.722 55.1938C192.722 55.1938 192.74 55.1498 192.777 55.0618C192.821 54.9738 192.869 54.8675 192.92 54.7428C192.979 54.6108 193.03 54.4825 193.074 54.3578C193.118 54.2332 193.144 54.1342 193.151 54.0608H193.25ZM194.548 58.2518V58.5818H191.633V58.2518H194.548ZM195.109 60.0118H195.945C196.055 60.2612 196.191 60.4408 196.352 60.5508C196.513 60.6535 196.667 60.7048 196.814 60.7048C196.814 60.7048 196.829 60.7048 196.858 60.7048C196.887 60.7048 196.902 60.7048 196.902 60.7048V60.8148H194.647V60.7048H194.735C194.86 60.7048 194.973 60.6462 195.076 60.5288C195.179 60.4042 195.19 60.2318 195.109 60.0118ZM198.244 54.2148V58.3728C198.244 59.0842 198.424 59.6452 198.783 60.0558C199.15 60.4665 199.649 60.6718 200.279 60.6718C200.976 60.6718 201.522 60.4775 201.918 60.0888C202.322 59.7002 202.523 59.1685 202.523 58.4938V54.2148H203.029V58.4938C203.029 59.2565 202.784 59.8615 202.292 60.3088C201.808 60.7488 201.141 60.9688 200.29 60.9688C199.447 60.9688 198.776 60.7488 198.277 60.3088C197.786 59.8688 197.54 59.2675 197.54 58.5048V54.2148H198.244ZM197.562 54.2148V54.7978H197.54C197.533 54.6658 197.478 54.5558 197.375 54.4678C197.28 54.3725 197.159 54.3248 197.012 54.3248C197.012 54.3248 196.983 54.3248 196.924 54.3248C196.873 54.3248 196.847 54.3248 196.847 54.3248V54.2148H197.562ZM198.937 54.2148V54.3248C198.937 54.3248 198.908 54.3248 198.849 54.3248C198.798 54.3248 198.772 54.3248 198.772 54.3248C198.633 54.3248 198.508 54.3725 198.398 54.4678C198.296 54.5558 198.244 54.6658 198.244 54.7978H198.222V54.2148H198.937ZM202.545 54.2148V54.7978H202.523C202.523 54.6658 202.472 54.5558 202.369 54.4678C202.267 54.3725 202.142 54.3248 201.995 54.3248C201.995 54.3248 201.966 54.3248 201.907 54.3248C201.856 54.3248 201.83 54.3248 201.83 54.3248V54.2148H202.545ZM203.722 54.2148V54.3248C203.722 54.3248 203.693 54.3248 203.634 54.3248C203.583 54.3248 203.557 54.3248 203.557 54.3248C203.418 54.3248 203.297 54.3725 203.194 54.4678C203.092 54.5558 203.037 54.6658 203.029 54.7978H203.007V54.2148H203.722ZM206.057 54.2148H207.476C207.82 54.2148 208.128 54.2552 208.4 54.3358C208.678 54.4165 208.913 54.5338 209.104 54.6878C209.302 54.8418 209.452 55.0288 209.555 55.2488C209.657 55.4688 209.709 55.7182 209.709 55.9968C209.709 56.3048 209.635 56.5908 209.489 56.8548C209.342 57.1188 209.137 57.3352 208.873 57.5038C208.616 57.6725 208.323 57.7752 207.993 57.8118C208.117 57.8632 208.26 57.9768 208.422 58.1528C208.59 58.3288 208.733 58.5012 208.851 58.6698C208.851 58.6698 208.898 58.7358 208.994 58.8678C209.089 58.9925 209.21 59.1502 209.357 59.3408C209.511 59.5242 209.661 59.7002 209.808 59.8688C209.962 60.0375 210.101 60.1842 210.226 60.3088C210.358 60.4335 210.497 60.5325 210.644 60.6058C210.798 60.6718 210.974 60.7048 211.172 60.7048V60.8148H210.831C210.427 60.8148 210.094 60.7635 209.83 60.6608C209.573 60.5582 209.364 60.4335 209.203 60.2868C209.041 60.1328 208.902 59.9862 208.785 59.8468C208.755 59.8102 208.686 59.7185 208.576 59.5718C208.473 59.4178 208.359 59.2528 208.235 59.0768C208.11 58.9008 207.996 58.7432 207.894 58.6038C207.791 58.4572 207.729 58.3692 207.707 58.3398C207.56 58.1492 207.391 57.9805 207.201 57.8338C207.01 57.6798 206.808 57.6028 206.596 57.6028V57.4928C206.596 57.4928 206.654 57.4965 206.772 57.5038C206.889 57.5038 207.039 57.5002 207.223 57.4928C207.428 57.4855 207.633 57.4708 207.839 57.4488C208.044 57.4195 208.235 57.3388 208.411 57.2068C208.594 57.0748 208.737 56.8548 208.84 56.5468C208.869 56.4662 208.891 56.3708 208.906 56.2608C208.92 56.1508 208.924 56.0372 208.917 55.9198C208.909 55.7145 208.869 55.5312 208.796 55.3698C208.73 55.2085 208.631 55.0692 208.499 54.9518C208.374 54.8345 208.224 54.7428 208.048 54.6768C207.872 54.6108 207.674 54.5742 207.454 54.5668C207.109 54.5522 206.808 54.5485 206.552 54.5558C206.295 54.5632 206.167 54.5632 206.167 54.5558C206.167 54.5485 206.156 54.5192 206.134 54.4678C206.119 54.4092 206.101 54.3542 206.079 54.3028C206.064 54.2442 206.057 54.2148 206.057 54.2148ZM206.189 54.2148V60.8148H205.485V54.2148H206.189ZM205.518 60.1108L205.65 60.8148H204.715V60.7048C204.715 60.7048 204.74 60.7048 204.792 60.7048C204.843 60.7048 204.869 60.7048 204.869 60.7048C205.045 60.7048 205.191 60.6462 205.309 60.5288C205.426 60.4115 205.488 60.2722 205.496 60.1108H205.518ZM205.518 54.9078H205.496C205.488 54.7392 205.426 54.5998 205.309 54.4898C205.191 54.3798 205.045 54.3248 204.869 54.3248C204.869 54.3248 204.843 54.3248 204.792 54.3248C204.74 54.3248 204.715 54.3248 204.715 54.3248V54.2148H205.65L205.518 54.9078ZM206.156 60.1108H206.189C206.196 60.2722 206.258 60.4115 206.376 60.5288C206.493 60.6462 206.64 60.7048 206.816 60.7048C206.816 60.7048 206.838 60.7048 206.882 60.7048C206.933 60.7048 206.959 60.7048 206.959 60.7048L206.97 60.8148H206.024L206.156 60.1108ZM214.702 54.0608L217.727 60.7488H216.858L214.515 55.0398L214.702 54.0608ZM212.579 60.0118C212.498 60.2318 212.509 60.4042 212.612 60.5288C212.715 60.6462 212.832 60.7048 212.964 60.7048H213.052V60.8148H210.951V60.7048C210.951 60.7048 210.966 60.7048 210.995 60.7048C211.024 60.7048 211.039 60.7048 211.039 60.7048C211.193 60.7048 211.351 60.6535 211.512 60.5508C211.673 60.4408 211.813 60.2612 211.93 60.0118H212.579ZM214.702 54.0608L214.779 54.8198L212.26 60.7818H211.567L214.174 55.1938C214.174 55.1938 214.192 55.1498 214.229 55.0618C214.273 54.9738 214.321 54.8675 214.372 54.7428C214.431 54.6108 214.482 54.4825 214.526 54.3578C214.57 54.2332 214.596 54.1342 214.603 54.0608H214.702ZM216 58.2518V58.5818H213.085V58.2518H216ZM216.561 60.0118H217.397C217.507 60.2612 217.643 60.4408 217.804 60.5508C217.965 60.6535 218.119 60.7048 218.266 60.7048C218.266 60.7048 218.281 60.7048 218.31 60.7048C218.339 60.7048 218.354 60.7048 218.354 60.7048V60.8148H216.099V60.7048H216.187C216.312 60.7048 216.425 60.6462 216.528 60.5288C216.631 60.4042 216.642 60.2318 216.561 60.0118ZM219.488 54.0498L225.582 59.7918L225.692 60.9688L219.598 55.1938L219.488 54.0498ZM219.51 60.1328V60.8148H218.685V60.7048C218.685 60.7048 218.714 60.7048 218.773 60.7048C218.839 60.7048 218.872 60.7048 218.872 60.7048C219.041 60.7048 219.184 60.6498 219.301 60.5398C219.418 60.4298 219.477 60.2942 219.477 60.1328H219.51ZM219.972 60.1328C219.972 60.2942 220.031 60.4298 220.148 60.5398C220.273 60.6498 220.416 60.7048 220.577 60.7048C220.577 60.7048 220.606 60.7048 220.665 60.7048C220.731 60.7048 220.764 60.7048 220.764 60.7048V60.8148H219.939V60.1328H219.972ZM219.488 54.0498L219.961 54.6658L219.972 60.8148H219.477V55.4248C219.477 55.0508 219.459 54.7282 219.422 54.4568C219.393 54.1855 219.378 54.0498 219.378 54.0498H219.488ZM225.692 54.2148V59.5608C225.692 59.7955 225.699 60.0228 225.714 60.2428C225.729 60.4555 225.743 60.6315 225.758 60.7708C225.78 60.9028 225.791 60.9688 225.791 60.9688H225.692L225.208 60.3858V54.2148H225.692ZM225.659 54.8968V54.2148H226.484V54.3248C226.484 54.3248 226.451 54.3248 226.385 54.3248C226.326 54.3248 226.297 54.3248 226.297 54.3248C226.136 54.3248 225.993 54.3798 225.868 54.4898C225.751 54.5998 225.692 54.7355 225.692 54.8968H225.659ZM225.208 54.8968C225.201 54.7355 225.138 54.5998 225.021 54.4898C224.904 54.3798 224.761 54.3248 224.592 54.3248C224.592 54.3248 224.559 54.3248 224.493 54.3248C224.434 54.3248 224.405 54.3248 224.405 54.3248V54.2148H225.23V54.8968H225.208ZM230.414 54.2478V60.8148H229.699V54.2478H230.414ZM233.076 54.2038V54.5338H227.037V54.2038H233.076ZM233.076 54.5118V55.2708H232.955V55.0948C232.955 54.9408 232.904 54.8125 232.801 54.7098C232.706 54.5998 232.574 54.5412 232.405 54.5338V54.5118H233.076ZM233.076 54.0278V54.3138L231.844 54.2038C231.991 54.2038 232.145 54.1965 232.306 54.1818C232.475 54.1598 232.629 54.1342 232.768 54.1048C232.908 54.0755 233.01 54.0498 233.076 54.0278ZM229.721 60.1108V60.8148H228.918V60.7048C228.926 60.7048 228.948 60.7048 228.984 60.7048C229.028 60.7048 229.05 60.7048 229.05 60.7048C229.226 60.7048 229.377 60.6462 229.501 60.5288C229.626 60.4115 229.692 60.2722 229.699 60.1108H229.721ZM230.381 60.1108H230.414C230.422 60.2722 230.488 60.4115 230.612 60.5288C230.737 60.6462 230.887 60.7048 231.063 60.7048C231.063 60.7048 231.082 60.7048 231.118 60.7048C231.162 60.7048 231.184 60.7048 231.184 60.7048V60.8148H230.381V60.1108ZM227.708 54.5118V54.5338C227.54 54.5412 227.404 54.5998 227.301 54.7098C227.206 54.8125 227.158 54.9408 227.158 55.0948V55.2708H227.037V54.5118H227.708ZM227.037 54.0278C227.103 54.0498 227.202 54.0755 227.334 54.1048C227.474 54.1342 227.628 54.1598 227.796 54.1818C227.965 54.1965 228.123 54.2038 228.269 54.2038L227.037 54.3138V54.0278ZM238.743 52.9608C238.86 52.9608 238.985 52.9682 239.117 52.9828C239.256 52.9975 239.388 53.0195 239.513 53.0488C239.645 53.0708 239.762 53.0965 239.865 53.1258C239.975 53.1478 240.059 53.1735 240.118 53.2028V54.4238H240.019C240.019 54.0718 239.898 53.7968 239.656 53.5988C239.414 53.3935 239.12 53.2908 238.776 53.2908C238.372 53.2908 238.046 53.4192 237.797 53.6758C237.547 53.9252 237.423 54.2185 237.423 54.5558C237.423 54.6952 237.452 54.8602 237.511 55.0508C237.577 55.2342 237.694 55.4065 237.863 55.5678L240.03 57.5698C240.25 57.7752 240.396 57.9952 240.47 58.2298C240.543 58.4645 240.58 58.6918 240.58 58.9118C240.58 59.5205 240.393 60.0155 240.019 60.3968C239.652 60.7782 239.153 60.9688 238.523 60.9688C238.347 60.9688 238.138 60.9505 237.896 60.9138C237.661 60.8772 237.43 60.8148 237.203 60.7268C236.983 60.6315 236.799 60.5105 236.653 60.3638C236.631 60.2465 236.62 60.0998 236.62 59.9238C236.62 59.7478 236.634 59.5645 236.664 59.3738C236.693 59.1758 236.733 58.9962 236.785 58.8348H236.884C236.847 59.2088 236.895 59.5352 237.027 59.8138C237.159 60.0925 237.349 60.3052 237.599 60.4518C237.855 60.5912 238.145 60.6535 238.468 60.6388C238.871 60.6168 239.216 60.4775 239.502 60.2208C239.795 59.9568 239.942 59.6048 239.942 59.1648C239.942 58.9522 239.905 58.7615 239.832 58.5928C239.758 58.4168 239.652 58.2665 239.513 58.1418L237.401 56.1838C237.181 55.9785 237.027 55.7548 236.939 55.5128C236.851 55.2635 236.807 55.0325 236.807 54.8198C236.807 54.5118 236.88 54.2148 237.027 53.9288C237.173 53.6428 237.39 53.4118 237.676 53.2358C237.969 53.0525 238.325 52.9608 238.743 52.9608ZM240.118 53.0708V53.3018H239.282V53.0708H240.118ZM243.281 53.1148H244.733C245.203 53.1148 245.606 53.1992 245.943 53.3678C246.281 53.5365 246.541 53.7822 246.724 54.1048C246.908 54.4202 246.999 54.7978 246.999 55.2378C246.999 55.5752 246.933 55.8795 246.801 56.1508C246.669 56.4148 246.493 56.6385 246.273 56.8218C246.053 57.0052 245.804 57.1445 245.525 57.2398C245.247 57.3278 244.957 57.3608 244.656 57.3388C244.363 57.3168 244.077 57.2325 243.798 57.0858V56.9758C243.798 56.9758 243.861 56.9868 243.985 57.0088C244.11 57.0235 244.268 57.0272 244.458 57.0198C244.656 57.0052 244.862 56.9648 245.074 56.8988C245.294 56.8255 245.496 56.7008 245.679 56.5248C245.87 56.3488 246.013 56.1032 246.108 55.7878C246.13 55.7072 246.149 55.6082 246.163 55.4908C246.178 55.3662 246.182 55.2452 246.174 55.1278C246.167 54.6218 246.035 54.2148 245.778 53.9068C245.522 53.5988 245.159 53.4448 244.689 53.4448H243.391C243.391 53.4448 243.38 53.4192 243.358 53.3678C243.344 53.3092 243.325 53.2542 243.303 53.2028C243.289 53.1442 243.281 53.1148 243.281 53.1148ZM243.424 53.1148V60.8148H242.709V53.1148H243.424ZM242.742 60.0118V60.8148H241.862V60.7048C241.862 60.7048 241.884 60.7048 241.928 60.7048C241.98 60.7048 242.005 60.7048 242.005 60.7048C242.196 60.7048 242.357 60.6388 242.489 60.5068C242.629 60.3675 242.702 60.2025 242.709 60.0118H242.742ZM242.742 53.9178H242.709C242.709 53.7272 242.64 53.5658 242.5 53.4338C242.361 53.2945 242.196 53.2248 242.005 53.2248C242.005 53.2248 241.983 53.2248 241.939 53.2248C241.895 53.2248 241.873 53.2248 241.873 53.2248L241.862 53.1148H242.742V53.9178ZM243.391 60.0118H243.424C243.432 60.2025 243.501 60.3675 243.633 60.5068C243.773 60.6388 243.938 60.7048 244.128 60.7048C244.128 60.7048 244.15 60.7048 244.194 60.7048C244.246 60.7048 244.271 60.7048 244.271 60.7048V60.8148H243.391V60.0118ZM250.727 52.9608L253.983 60.7488H253.048L250.507 54.0058L250.727 52.9608ZM248.362 60.0118C248.31 60.1585 248.303 60.2832 248.34 60.3858C248.376 60.4885 248.435 60.5692 248.516 60.6278C248.604 60.6792 248.692 60.7048 248.78 60.7048H248.879V60.8148H246.668V60.7048C246.668 60.7048 246.686 60.7048 246.723 60.7048C246.752 60.7048 246.767 60.7048 246.767 60.7048C246.935 60.7048 247.108 60.6535 247.284 60.5508C247.467 60.4408 247.617 60.2612 247.735 60.0118H248.362ZM250.727 52.9608L250.826 53.7308L248.065 60.7818H247.405L250.221 54.0938C250.221 54.0938 250.239 54.0498 250.276 53.9618C250.32 53.8665 250.367 53.7528 250.419 53.6208C250.477 53.4888 250.525 53.3605 250.562 53.2358C250.606 53.1112 250.628 53.0195 250.628 52.9608H250.727ZM252.278 57.8118V58.1418H248.835V57.8118H252.278ZM252.773 60.0118H253.675C253.785 60.2612 253.931 60.4408 254.115 60.5508C254.298 60.6535 254.474 60.7048 254.643 60.7048C254.643 60.7048 254.657 60.7048 254.687 60.7048C254.716 60.7048 254.731 60.7048 254.731 60.7048V60.8148H252.256V60.7048H252.355C252.494 60.7048 252.619 60.6462 252.729 60.5288C252.839 60.4042 252.853 60.2318 252.773 60.0118Z" fill="#8D5C0D"/>
<line x1="263.486" y1="56.8148" x2="295.486" y2="56.8148" stroke="#8D5C0D" stroke-linecap="round"/>
<defs>
<radialGradient id="paint0_radial_427_508" cx="0" cy="0" r="1" gradientUnits="userSpaceOnUse" gradientTransform="translate(49 75) rotate(-102.624) scale(162.427 182.784)">
<stop offset="0.027795" stop-color="#8D5C0D"/>
<stop offset="0.0604616" stop-color="#CFA54B"/>
<stop offset="0.0941121" stop-color="#8D5C0D"/>
<stop offset="0.123681" stop-color="#78430B"/>
<stop offset="0.165494" stop-color="#8D5C0D"/>
<stop offset="0.205213" stop-color="#CFA54B"/>
<stop offset="0.253308" stop-color="#8D5C0D"/>
<stop offset="0.28893" stop-color="#78430B"/>
<stop offset="0.32921" stop-color="#FFDB70"/>
<stop offset="0.356246" stop-color="white"/>
<stop offset="0.383251" stop-color="#FFDB70"/>
<stop offset="0.423516" stop-color="#8D5C0D"/>
<stop offset="0.458714" stop-color="#78430B"/>
<stop offset="0.497902" stop-color="#8D5C0D"/>
<stop offset="0.53618" stop-color="#CFA54B"/>
<stop offset="0.575883" stop-color="#8D5C0D"/>
<stop offset="0.613645" stop-color="#78430B"/>
<stop offset="0.651908" stop-color="#8D5C0D"/>
<stop offset="0.69014" stop-color="#CFA54B"/>
<stop offset="0.721681" stop-color="#FFDB70"/>
<stop offset="0.75386" stop-color="#CFA54B"/>
<stop offset="0.798222" stop-color="#8D5C0D"/>
<stop offset="0.833374" stop-color="#78430B"/>
</radialGradient>
</defs>
</svg>
